<svg width="24" height="24" viewBox="0 0 24 24" fill="none" xmlns="http://www.w3.org/2000/svg">
<g clip-path="url(#clip0_612_9832)">
<path d="M24 12C24 18.6274 18.6274 24 12 24C5.37262 24 0 18.6274 0 12C0 12.0029 12 0.0013125 12 0C18.6274 0 24 5.37262 24 12Z" fill="#0052B4"/>
<path d="M11.9673 12.0004H11.9995C11.9995 11.9896 11.9995 11.9791 11.9995 11.9683C11.9887 11.979 11.978 11.9897 11.9673 12.0004Z" fill="#F0F0F0"/>
<path d="M12 6.26086C12 4.14937 12 2.76586 12 0H11.998C5.37145 0.001125 0 5.37323 0 12H6.26086V8.47448L9.78637 12H11.9679C11.9786 11.9893 11.9893 11.9786 12 11.9679C12 11.1594 12 10.4381 12 9.78647L8.47443 6.26086H12Z" fill="#F0F0F0"/>
<path d="M6.07075 1.56519C4.19393 2.63389 2.6336 4.19417 1.56494 6.071V12H4.6954V4.69573V4.69564H11.9997C11.9997 3.70831 11.9997 2.76772 11.9997 1.56519H6.07075Z" fill="#D80027"/>
<path d="M11.9996 10.5249L7.73612 6.26147H6.2605V6.26157L11.9995 12.0006H11.9996C11.9996 12.0006 11.9996 10.9831 11.9996 10.5249Z" fill="#D80027"/>
<path d="M20.2942 13.7574C20.6393 13.2826 20.8698 12.7029 20.8698 12.0008V6.78339C20.4337 7.11095 19.8919 7.30511 19.3046 7.30511C18.4512 7.30511 17.6935 6.89528 17.2176 6.26172C16.7416 6.89528 15.984 7.30511 15.1306 7.30511C14.5433 7.30511 14.0014 7.11091 13.5654 6.78348V12.0008C13.5654 12.7029 13.7959 13.2826 14.141 13.7574H20.2942Z" fill="#F3F3F3"/>
<path d="M19.2082 11.0321C19.3744 10.6269 19.5036 10.0345 19.5036 9.7397C19.5036 9.26603 18.886 8.88208 18.886 8.88208C18.886 8.88208 18.2685 9.26603 18.2685 9.7397C18.2685 10.0345 18.3977 10.6269 18.5638 11.0321L18.2073 11.837C18.4168 11.9222 18.6458 11.9696 18.8861 11.9696C19.1263 11.9696 19.3553 11.9222 19.5649 11.837L19.2082 11.0321Z" fill="#FF9811"/>
<path d="M16.7951 8.42672C16.3612 8.4855 15.7835 8.66995 15.5283 8.81733C15.1181 9.05419 15.0942 9.78089 15.0942 9.78089C15.0942 9.78089 15.7356 10.1237 16.1457 9.88687C16.4011 9.73945 16.8494 9.33145 17.1172 8.98495L17.9927 8.8912C17.9617 8.66723 17.888 8.44519 17.768 8.2372C17.6479 8.02922 17.4925 7.85447 17.3139 7.71558L16.7951 8.42672Z" fill="#FF9811"/>
<path d="M15.7445 11.8207C16.0123 12.167 16.4608 12.575 16.7162 12.7224C17.1264 12.9592 17.7677 12.6165 17.7677 12.6165C17.7677 12.6165 17.7438 11.8897 17.3336 11.6529C17.0782 11.5055 16.5007 11.3212 16.0667 11.2625L15.5479 10.5513C15.3694 10.6901 15.214 10.865 15.0938 11.0728C14.9738 11.2808 14.9003 11.5028 14.8691 11.7269L15.7445 11.8207Z" fill="#FF9811"/>
<path d="M14.0115 13.5657C14.9859 15.1292 17.2172 15.6525 17.2172 15.6525C17.2172 15.6525 19.4485 15.1292 20.4229 13.5657H14.0115Z" fill="#338AF3"/>
</g>
<defs>
<clipPath id="clip0_612_9832">
<rect width="24" height="24" fill="white"/>
</clipPath>
</defs>
</svg>
