<svg width="24" height="24" viewBox="0 0 24 24" fill="none" xmlns="http://www.w3.org/2000/svg">
<g clip-path="url(#clip0_612_9855)">
<path d="M12 24C18.6274 24 24 18.6274 24 12C24 5.37258 18.6274 0 12 0C5.37258 0 0 5.37258 0 12C0 18.6274 5.37258 24 12 24Z" fill="#F0F0F0"/>
<path d="M12.0002 -0.000976562C7.24267 -0.000976562 3.13192 2.7677 1.19092 6.78165H22.8094C20.8685 2.7677 16.7577 -0.000976562 12.0002 -0.000976562Z" fill="#338AF3"/>
<path d="M12.0004 23.9987C16.7579 23.9987 20.8687 21.23 22.8097 17.2161H1.19116C3.13216 21.23 7.24291 23.9987 12.0004 23.9987Z" fill="#338AF3"/>
<path d="M15.5866 12L14.1211 12.6894L14.9015 14.1087L13.3101 13.8043L13.1084 15.4119L12 14.2295L10.8915 15.4119L10.6899 13.8043L9.09846 14.1087L9.87883 12.6894L8.41333 12L9.87888 11.3106L9.09846 9.89135L10.6898 10.1958L10.8915 8.58813L12 9.77051L13.1085 8.58813L13.3101 10.1958L14.9015 9.89135L14.1211 11.3107L15.5866 12Z" fill="#FFDA44"/>
</g>
<defs>
<clipPath id="clip0_612_9855">
<rect width="24" height="24" fill="white"/>
</clipPath>
</defs>
</svg>
