<svg width="24" height="24" viewBox="0 0 24 24" fill="none" xmlns="http://www.w3.org/2000/svg">
<g clip-path="url(#clip0_612_9792)">
<path d="M23.5864 15.13C23.8554 14.1318 23.9998 13.0827 23.9998 11.9995C23.9998 10.9164 23.8554 9.86721 23.5864 8.86906L10.9563 0.045166C8.61154 0.247197 6.45983 1.12329 4.69541 2.47896L0.413146 8.86906C0.144131 9.86721 -0.000244141 10.9164 -0.000244141 11.9995C-0.000244141 13.0763 0.142396 14.1197 0.408412 15.1126L4.69536 21.5201C6.45979 22.8757 8.61149 23.7519 10.9562 23.9539L23.5864 15.13Z" fill="#FFDA44"/>
<path d="M0.412842 15.1306C1.10715 17.7068 2.63739 19.9397 4.69511 21.5207V15.1306H0.412842Z" fill="#0052B4"/>
<path d="M10.9558 23.9545C11.2998 23.9841 11.6476 24.0002 11.9993 24.0002C17.5436 24.0002 22.2089 20.2398 23.5859 15.1306H10.9558V23.9545Z" fill="#0052B4"/>
<path d="M23.5859 8.86955C22.2089 3.76036 17.5436 0 11.9993 0C11.6476 0 11.2998 0.0160312 10.9558 0.0456562V8.86955H23.5859Z" fill="#0052B4"/>
<path d="M4.69511 2.47974C2.63739 4.06083 1.10715 6.29363 0.412842 8.86983H4.69511V2.47974Z" fill="#0052B4"/>
<path d="M23.8987 10.4342H9.3916H9.39156V0.284668C8.28259 0.530574 7.23123 0.929152 6.2611 1.45851V10.4342H0.101822C0.0350254 10.9466 0.000244141 11.4689 0.000244141 11.9994C0.000244141 12.5299 0.0350254 13.0523 0.101822 13.5646H6.26106H6.2611V22.5403C7.23123 23.0696 8.28259 23.4683 9.39156 23.7142V13.5648V13.5647H23.8987C23.9654 13.0523 24.0002 12.5299 24.0002 11.9994C24.0002 11.4689 23.9654 10.9466 23.8987 10.4342Z" fill="#D80027"/>
</g>
<defs>
<clipPath id="clip0_612_9792">
<rect width="24" height="24" fill="white"/>
</clipPath>
</defs>
</svg>
