<svg width="24" height="24" viewBox="0 0 24 24" fill="none" xmlns="http://www.w3.org/2000/svg">
<g clip-path="url(#clip0_612_9894)">
<path d="M23.9995 12.0001C23.9995 10.5323 23.7355 9.12615 23.2531 7.82621L11.9995 7.30444L0.745902 7.82616C0.263559 9.12614 -0.000488281 10.5323 -0.000488281 12.0001C-0.000488281 13.4679 0.263559 14.874 0.745902 16.174L11.9995 16.6957L23.2531 16.174C23.7355 14.874 23.9995 13.4679 23.9995 12.0001Z" fill="#D80027"/>
<path d="M12.0004 23.9995C17.16 23.9995 21.5585 20.743 23.254 16.1733H0.746826C2.44234 20.743 6.84086 23.9995 12.0004 23.9995Z" fill="#6DA544"/>
<path d="M0.746826 7.82513H23.2541C21.5585 3.25552 17.16 -0.000976562 12.0004 -0.000976562C6.84086 -0.000976562 2.44234 3.25552 0.746826 7.82513Z" fill="#338AF3"/>
<path d="M12.2605 15.3912C10.3875 15.3912 8.86915 13.8728 8.86915 11.9999C8.86915 10.1269 10.3875 8.60855 12.2605 8.60855C12.8444 8.60855 13.3939 8.75621 13.8737 9.01618C13.121 8.28019 12.0918 7.82593 10.9561 7.82593C8.6509 7.82593 6.78223 9.69465 6.78223 11.9998C6.78223 14.305 8.65094 16.1737 10.9561 16.1737C12.0919 16.1737 13.1211 15.7194 13.8737 14.9835C13.3939 15.2435 12.8444 15.3912 12.2605 15.3912Z" fill="#F0F0F0"/>
<path d="M14.8693 9.65088L15.3185 10.9142L16.5295 10.3385L15.9538 11.5495L17.2171 11.9987L15.9538 12.448L16.5295 13.6589L15.3185 13.0832L14.8693 14.3465L14.4202 13.0832L13.2091 13.6589L13.7849 12.448L12.5215 11.9987L13.7849 11.5495L13.2091 10.3385L14.4202 10.9142L14.8693 9.65088Z" fill="#F0F0F0"/>
</g>
<defs>
<clipPath id="clip0_612_9894">
<rect width="24" height="24" fill="white"/>
</clipPath>
</defs>
</svg>
