<svg width="24" height="24" viewBox="0 0 24 24" fill="none" xmlns="http://www.w3.org/2000/svg">
<g clip-path="url(#clip0_612_10139)">
<path d="M12.0004 23.9977C18.6269 23.9977 23.9987 18.6259 23.9987 11.9995C23.9987 5.37302 18.6269 0.0012207 12.0004 0.0012207C5.37399 0.0012207 0.00219727 5.37302 0.00219727 11.9995C0.00219727 18.6259 5.37399 23.9977 12.0004 23.9977Z" fill="#F0F0F0"/>
<path d="M1.60965 6.00122C1.06809 6.93912 0.668609 7.91967 0.402588 8.91846L20.4682 20.5034C21.2002 19.7736 21.8497 18.9373 22.3911 17.9995L1.60965 6.00122Z" fill="black"/>
<path d="M17.999 1.6092C13.1981 -1.16253 7.27864 -0.238742 3.53198 3.4969L23.5976 15.0818C24.9595 9.9694 22.7998 4.38098 17.999 1.6092Z" fill="#FFDA44"/>
<path d="M6.00079 22.3899C10.8015 25.1617 16.7212 24.2379 20.4678 20.5023L0.402062 8.91724C-0.959733 14.0298 1.19994 19.6182 6.00079 22.3899Z" fill="#FFDA44"/>
<path d="M15.3908 10.6963C15.3908 12.5689 13.8727 14.0871 12 14.0871C10.1273 14.0871 8.60916 12.5689 8.60916 10.6963C8.60916 10.1124 8.75677 9.56293 9.01675 9.08325C8.28094 9.83575 7.82666 10.8648 7.82666 12.0004C7.82666 14.3052 9.69509 16.1737 12 16.1737C14.3049 16.1737 16.1733 14.3053 16.1733 12.0004C16.1733 10.8648 15.7191 9.83575 14.9832 9.08325C15.2432 9.56303 15.3908 10.1124 15.3908 10.6963Z" fill="#D80027"/>
<path d="M12.7828 6.78345H11.2178V14.6084H12.7828V6.78345Z" fill="#D80027"/>
<path d="M14.608 8.34814H9.39136C9.39136 8.70829 9.7051 9.00024 10.0652 9.00024H10.0435C10.0435 9.36038 10.3354 9.65233 10.6955 9.65233C10.6955 10.0125 10.9875 10.3044 11.3476 10.3044H12.6518C13.0119 10.3044 13.3039 10.0125 13.3039 9.65233C13.664 9.65233 13.956 9.36038 13.956 9.00024H13.9343C14.2943 9.00019 14.608 8.70834 14.608 8.34814Z" fill="#D80027"/>
<path d="M15.6519 15.1299H8.34863V16.6949H15.6519V15.1299Z" fill="#D80027"/>
<path d="M16.6946 15.6509H13.5647V17.2159H16.6946V15.6509Z" fill="#D80027"/>
<path d="M10.4349 15.6509H7.30493V17.2159H10.4349V15.6509Z" fill="#D80027"/>
</g>
<defs>
<clipPath id="clip0_612_10139">
<rect width="24" height="24" fill="white"/>
</clipPath>
</defs>
</svg>
