<svg width="24" height="24" viewBox="0 0 24 24" fill="none" xmlns="http://www.w3.org/2000/svg">
<g clip-path="url(#clip0_612_10281)">
<path d="M24 12C24 18.6274 18.6274 24 12 24C5.37262 24 0 18.6274 0 12C0 12.0029 12 0.0013125 12 0C18.6274 0 24 5.37262 24 12Z" fill="#0052B4"/>
<path d="M11.9678 12.0009H11.9999C11.9999 11.9901 11.9999 11.9796 11.9999 11.9688C11.9892 11.9795 11.9785 11.9902 11.9678 12.0009Z" fill="#F0F0F0"/>
<path d="M11.9997 6.26184C11.9997 4.15035 11.9997 2.76684 11.9997 0.000976562H11.9977C5.37121 0.00210156 -0.000244141 5.37421 -0.000244141 12.001H6.26061V8.47546L9.78613 12.001H11.9677C11.9784 11.9903 11.9891 11.9796 11.9998 11.9689C11.9998 11.1604 11.9998 10.4391 11.9998 9.78745L8.47419 6.26184H11.9997Z" fill="#F0F0F0"/>
<path d="M6.07124 1.56445C4.19441 2.63316 2.63409 4.19344 1.56543 6.07027V11.9993H4.69588V4.695V4.69491H12.0002C12.0002 3.70758 12.0002 2.76699 12.0002 1.56445H6.07124Z" fill="#D80027"/>
<path d="M11.9999 10.5237L7.73637 6.26025H6.26074V6.26035L11.9998 11.9994H11.9999C11.9999 11.9994 11.9999 10.9818 11.9999 10.5237Z" fill="#D80027"/>
<path d="M16.1738 12L16.3958 12.6833H17.1142L16.533 13.1055L16.755 13.7888L16.1738 13.3665L15.5926 13.7888L15.8146 13.1055L15.2334 12.6833H15.9518L16.1738 12Z" fill="#F0F0F0"/>
<path d="M13.2224 13.2229L13.8625 13.549L14.3705 13.041L14.2581 13.7506L14.8982 14.0768L14.1886 14.1891L14.0763 14.8988L13.7501 14.2586L13.0405 14.371L13.5486 13.863L13.2224 13.2229Z" fill="#F0F0F0"/>
<path d="M11.9995 16.1732L12.6828 15.9512L12.6829 15.2329L13.105 15.814L13.7883 15.592L13.366 16.1732L13.7883 16.7545L13.105 16.5325L12.6829 17.1137V16.3953L11.9995 16.1732Z" fill="#F0F0F0"/>
<path d="M13.2224 19.1255L13.5485 18.4854L13.0405 17.9775L13.7501 18.0898L14.0763 17.4497L14.1886 18.1593L14.8982 18.2716L14.2581 18.5978L14.3705 19.3075L13.8625 18.7993L13.2224 19.1255Z" fill="#F0F0F0"/>
<path d="M16.1738 20.3484L15.9518 19.6651H15.2334L15.8146 19.2428L15.5926 18.5596L16.1738 18.9818L16.7551 18.5596L16.5331 19.2428L17.1143 19.6651H16.3959L16.1738 20.3484Z" fill="#F0F0F0"/>
<path d="M19.1248 19.1255L18.4847 18.7995L17.9767 19.3075L18.0891 18.5978L17.449 18.2717L18.1586 18.1593L18.271 17.4497L18.5971 18.0898L19.3067 17.9775L18.7986 18.4855L19.1248 19.1255Z" fill="#F0F0F0"/>
<path d="M20.3479 16.1732L19.6646 16.3953V17.1137L19.2423 16.5325L18.5591 16.7545L18.9814 16.1732L18.5591 15.592L19.2423 15.814L19.6646 15.2329V15.9512L20.3479 16.1732Z" fill="#F0F0F0"/>
<path d="M19.1248 13.2229L18.7987 13.863L19.3067 14.371L18.5971 14.2585L18.271 14.8987L18.1586 14.189L17.449 14.0767L18.0891 13.7506L17.9767 13.041L18.4847 13.549L19.1248 13.2229Z" fill="#F0F0F0"/>
</g>
<defs>
<clipPath id="clip0_612_10281">
<rect width="24" height="24" fill="white"/>
</clipPath>
</defs>
</svg>
