<svg width="24" height="24" viewBox="0 0 24 24" fill="none" xmlns="http://www.w3.org/2000/svg">
<g clip-path="url(#clip0_612_10339)">
<path d="M12 24C18.6274 24 24 18.6274 24 12C24 5.37258 18.6274 0 12 0C5.37258 0 0 5.37258 0 12C0 18.6274 5.37258 24 12 24Z" fill="#FFDA44"/>
<path d="M11.9997 24.0005C15.9372 24.0005 19.4317 22.1041 21.6199 19.1748H2.37964C4.56776 22.1041 8.06225 24.0005 11.9997 24.0005Z" fill="#0052B4"/>
<path d="M24 12C24 5.37263 18.6274 0 12 0C5.37262 0 0 5.37263 0 12C0 13.419 0.246984 14.7803 0.699188 16.0439H23.3008C23.753 14.7803 24 13.419 24 12Z" fill="#0052B4"/>
<path d="M8.21359 7.69604L8.86108 9.68879H10.9566L9.26134 10.9206L9.90882 12.9134L8.21359 11.6817L6.51836 12.9134L7.16594 10.9206L5.4707 9.68879H7.56611L8.21359 7.69604Z" fill="#F0F0F0"/>
<path d="M4.61493 5.60962L5.00343 6.80531H6.26075L5.24361 7.54434L5.63211 8.74008L4.61493 8.00104L3.59779 8.74008L3.98633 7.54434L2.96924 6.80531H4.22652L4.61493 5.60962Z" fill="#F0F0F0"/>
</g>
<defs>
<clipPath id="clip0_612_10339">
<rect width="24" height="24" fill="white"/>
</clipPath>
</defs>
</svg>
