<svg width="24" height="24" viewBox="0 0 24 24" fill="none" xmlns="http://www.w3.org/2000/svg">
<g clip-path="url(#clip0_612_10369)">
<path d="M10.9562 13.044C10.9562 13.044 3.52144 3.51354 3.5144 3.51522C5.68594 1.34364 8.68598 0.000488281 11.9997 0.000488281C18.6271 0.000488281 23.9997 5.37311 23.9997 12.0005L10.9562 13.044Z" fill="#338AF3"/>
<path d="M10.9562 11.9993C10.9562 11.9993 3.52144 20.4862 3.5144 20.4845C5.68594 22.6561 8.68598 23.9993 11.9997 23.9993C18.6271 23.9993 23.9997 18.6266 23.9997 11.9993H10.9562Z" fill="#6DA544"/>
<path d="M3.51447 3.51465C-1.17181 8.20093 -1.17181 15.7989 3.51447 20.4853C5.45101 18.5487 7.3135 16.6862 11.9998 12L3.51447 3.51465Z" fill="#F0F0F0"/>
<path d="M4.85621 8.86938L5.63317 11.2608H8.14782L6.11354 12.7388L6.89045 15.1303L4.85621 13.6523L2.82188 15.1303L3.59898 12.7388L1.5647 11.2608H4.07917L4.85621 8.86938Z" fill="#D80027"/>
</g>
<defs>
<clipPath id="clip0_612_10369">
<rect width="24" height="24" fill="white"/>
</clipPath>
</defs>
</svg>
