<svg width="24" height="24" viewBox="0 0 24 24" fill="none" xmlns="http://www.w3.org/2000/svg">
<g clip-path="url(#clip0_612_10362)">
<path d="M12 24C18.6274 24 24 18.6274 24 12C24 5.37258 18.6274 0 12 0C5.37258 0 0 5.37258 0 12C0 18.6274 5.37258 24 12 24Z" fill="#F0F0F0"/>
<path d="M9.39214 10.435H23.8992C23.1322 4.54721 18.0977 0.000244141 12.0008 0.000244141C11.1048 0.000244141 10.2321 0.099291 9.39209 0.285479V10.435H9.39214Z" fill="#D80027"/>
<path d="M6.26158 10.4359V1.46021C2.96659 3.25805 0.607748 6.55575 0.102295 10.4359H6.26158V10.4359Z" fill="#D80027"/>
<path d="M6.26104 13.5657H0.101807C0.60726 17.4458 2.96611 20.7435 6.26109 22.5413L6.26104 13.5657Z" fill="#D80027"/>
<path d="M9.39209 13.5657V23.7152C10.2321 23.9014 11.1048 24.0005 12.0008 24.0005C18.0977 24.0005 23.1322 19.4535 23.8992 13.5657H9.39209V13.5657Z" fill="#D80027"/>
</g>
<defs>
<clipPath id="clip0_612_10362">
<rect width="24" height="24" fill="white"/>
</clipPath>
</defs>
</svg>
