<svg width="24" height="24" viewBox="0 0 24 24" fill="none" xmlns="http://www.w3.org/2000/svg">
<g clip-path="url(#clip0_612_10894)">
<path d="M12 24C18.6274 24 24 18.6274 24 12C24 5.37258 18.6274 0 12 0C5.37258 0 0 5.37258 0 12C0 18.6274 5.37258 24 12 24Z" fill="#338AF3"/>
<path d="M12.0003 5.21753L12.5182 6.81184H14.1947L12.8385 7.7972L13.3565 9.39147L12.0003 8.40615L10.644 9.39147L11.1621 7.7972L9.80591 6.81184H11.4823L12.0003 5.21753Z" fill="#F0F0F0"/>
<path d="M5.21729 11.9997L6.8116 11.4816V9.80518L7.79696 11.1615L9.39122 10.6434L8.40591 11.9997L9.39122 13.3558L7.79696 12.8377L6.8116 14.1939V12.5176L5.21729 11.9997Z" fill="#F0F0F0"/>
<path d="M12.0004 18.7831L11.4823 17.1888H9.80591L11.1622 16.2034L10.6442 14.6091L12.0004 15.5944L13.3565 14.6091L12.8384 16.2034L14.1947 17.1888H12.5183L12.0004 18.7831Z" fill="#F0F0F0"/>
<path d="M18.7828 11.9995L17.1885 12.5176V14.1939L16.2032 12.8377L14.6089 13.3557L15.5942 11.9995L14.6089 10.6434L16.2032 11.1615L17.1885 9.80518V11.4816L18.7828 11.9995Z" fill="#F0F0F0"/>
</g>
<defs>
<clipPath id="clip0_612_10894">
<rect width="24" height="24" fill="white"/>
</clipPath>
</defs>
</svg>
