<svg width="24" height="24" viewBox="0 0 24 24" fill="none" xmlns="http://www.w3.org/2000/svg">
<g clip-path="url(#clip0_612_10508)">
<path d="M23.2531 16.175C23.7355 14.875 23.9995 13.4689 23.9995 12.0011C23.9995 10.5332 23.7355 9.12721 23.2531 7.82718L11.9995 6.78369L0.745902 7.82718C0.263559 9.12721 -0.000488281 10.5332 -0.000488281 12.0011C-0.000488281 13.4689 0.263559 14.875 0.745902 16.175L11.9995 17.2184L23.2531 16.175Z" fill="#FFDA44"/>
<path d="M12.0005 23.9995C17.16 23.9995 21.5586 20.743 23.254 16.1733H0.746826C2.44239 20.743 6.84086 23.9995 12.0005 23.9995Z" fill="#0052B4"/>
<path d="M12.0005 0.000976562C6.84086 0.000976562 2.44239 3.25748 0.746826 7.82709H23.2541C21.5586 3.25748 17.16 0.000976562 12.0005 0.000976562Z" fill="#6DA544"/>
</g>
<defs>
<clipPath id="clip0_612_10508">
<rect width="24" height="24" fill="white"/>
</clipPath>
</defs>
</svg>
