<svg width="24" height="24" viewBox="0 0 24 24" fill="none" xmlns="http://www.w3.org/2000/svg">
<g clip-path="url(#clip0_612_10534)">
<path d="M12 24C18.6274 24 24 18.6274 24 12C24 5.37258 18.6274 0 12 0C5.37258 0 0 5.37258 0 12C0 18.6274 5.37258 24 12 24Z" fill="#F9F9F9"/>
<path d="M11.9997 24.0007C17.1593 24.0007 21.5578 20.7442 23.2533 16.1746H0.746094C2.44166 20.7442 6.84012 24.0007 11.9997 24.0007Z" fill="#D80027"/>
<path d="M16.6955 9.91353V8.34833H17.2173V7.30485H16.1738V7.82661H15.1303V7.30485H14.0869V8.34833H14.6086V9.91353H13.5651V6.26146H14.0869V5.21802H13.0434V5.73964H12.5216V5.21802H11.4782V5.73964H10.9564V5.21802H9.91292V6.26146H10.4347V9.91353H9.3912V8.34833H9.91292V7.30485H8.86943V7.82661H7.82599V7.30485H6.78251V8.34833H7.30423V9.91353H6.26074V14.0875H17.739V9.91353H16.6955Z" fill="#D80027"/>
<path d="M11.9998 13.5652C11.1353 13.5652 10.4346 14.266 10.4346 15.1304C10.4346 15.8118 10.8702 16.3913 11.478 16.6062V18.7826H9.91284V20.8696H12.5215V16.6063C13.1294 16.3914 13.565 15.8119 13.565 15.1304C13.565 14.266 12.8642 13.5652 11.9998 13.5652ZM11.9998 15.6522C11.7116 15.6522 11.478 15.4185 11.478 15.1304C11.478 14.8423 11.7116 14.6087 11.9998 14.6087C12.2879 14.6087 12.5215 14.8423 12.5215 15.1304C12.5215 15.4185 12.2879 15.6522 11.9998 15.6522Z" fill="#FFDA44"/>
</g>
<defs>
<clipPath id="clip0_612_10534">
<rect width="24" height="24" fill="white"/>
</clipPath>
</defs>
</svg>
