<svg width="24" height="24" viewBox="0 0 24 24" fill="none" xmlns="http://www.w3.org/2000/svg">
<g clip-path="url(#clip0_612_10548)">
<path d="M0 12C0 5.37262 5.37262 0 12 0C18.6274 0 24 5.37262 24 12C23.4783 12 12 13.5652 12 13.5652L0 12Z" fill="#F0F0F0"/>
<path d="M24.0002 12.0005C24.0002 18.6279 18.6276 24.0005 12.0002 24.0005C5.37287 24.0005 0.000244141 18.6279 0.000244141 12.0005" fill="#D80027"/>
<path d="M8.34754 17.7398C11.5172 17.7398 14.0867 15.1703 14.0867 12.0006C14.0867 8.83097 11.5172 6.26147 8.34754 6.26147C5.1779 6.26147 2.6084 8.83097 2.6084 12.0006C2.6084 15.1703 5.1779 17.7398 8.34754 17.7398Z" fill="#F0F0F0"/>
<path d="M2.6084 12.0006C2.6084 8.83107 5.1779 6.26147 8.34754 6.26147C11.5172 6.26147 14.0867 8.83102 14.0867 12.0006" fill="#D80027"/>
</g>
<defs>
<clipPath id="clip0_612_10548">
<rect width="24" height="24" fill="white"/>
</clipPath>
</defs>
</svg>
