<svg width="24" height="24" viewBox="0 0 24 24" fill="none" xmlns="http://www.w3.org/2000/svg">
<g clip-path="url(#clip0_612_10433)">
<path d="M12 24C18.6274 24 24 18.6274 24 12C24 5.37258 18.6274 0 12 0C5.37258 0 0 5.37258 0 12C0 18.6274 5.37258 24 12 24Z" fill="#F0F0F0"/>
<path d="M7.30462 7.82587H23.2538C21.5584 3.25626 17.1598 -0.000244141 12.0003 -0.000244141C8.68649 -0.000244141 5.68682 1.34315 3.51538 3.51487L7.30462 7.82587Z" fill="#6DA544"/>
<path d="M7.30462 16.1743H23.2538C21.5584 20.7439 17.1598 24.0004 12.0003 24.0004C8.68649 24.0004 5.68682 22.657 3.51538 20.4853L7.30462 16.1743Z" fill="#D80027"/>
<path d="M3.5152 3.51538C-1.17108 8.20166 -1.17108 15.7997 3.5152 20.486C5.45175 18.5495 7.31423 16.687 12.0005 12.0007L3.5152 3.51538Z" fill="#0052B4"/>
<path d="M14.0869 9.91284V12.5215C14.0869 14.119 16.1739 14.6085 16.1739 14.6085C16.1739 14.6085 18.2609 14.119 18.2609 12.5215V9.91284H14.0869Z" fill="#DEDDE0"/>
<path d="M16.6953 12.0522H15.6519V13.5653H16.6953V12.0522Z" fill="#786145"/>
<path d="M17.2176 11.4788C17.2176 10.9025 16.7504 10.4353 16.1741 10.4353C15.5978 10.4353 15.1306 10.9025 15.1306 11.4788C14.8425 11.4788 14.6089 11.7124 14.6089 12.0005C14.6089 12.2887 14.8425 12.5222 15.1306 12.5222C15.3017 12.5222 17.0465 12.5222 17.2176 12.5222C17.5057 12.5222 17.7393 12.2887 17.7393 12.0005C17.7393 11.7124 17.5058 11.4788 17.2176 11.4788Z" fill="#6DA544"/>
</g>
<defs>
<clipPath id="clip0_612_10433">
<rect width="24" height="24" fill="white"/>
</clipPath>
</defs>
</svg>
