<svg width="24" height="24" viewBox="0 0 24 24" fill="none" xmlns="http://www.w3.org/2000/svg">
<g clip-path="url(#clip0_612_10540)">
<path d="M12 24C18.6274 24 24 18.6274 24 12C24 5.37258 18.6274 0 12 0C5.37258 0 0 5.37258 0 12C0 18.6274 5.37258 24 12 24Z" fill="#F0F0F0"/>
<path d="M11.9998 8.86995H23.5864C23.2855 7.75367 22.8282 6.70175 22.2385 5.7395H11.9998V8.86995Z" fill="#338AF3"/>
<path d="M4.53082 21.3914H19.4705C20.5656 20.5192 21.5048 19.4597 22.2394 18.261H1.76196C2.49654 19.4597 3.43573 20.5192 4.53082 21.3914Z" fill="#338AF3"/>
<path d="M4.17457 2.90381C3.23117 3.7162 2.41559 4.67287 1.76196 5.73956H4.17457V2.90381Z" fill="#338AF3"/>
<path d="M12.0002 12.0001C12.0002 10.7778 12.0002 9.75482 12.0002 8.86963H7.30459V12.0001H4.17413V8.86963H0.413635C0.144619 9.86779 0.000244141 10.9169 0.000244141 12.0001C0.000244141 13.0832 0.144619 14.1324 0.413635 15.1305H23.5869C23.8559 14.1324 24.0002 13.0832 24.0002 12.0001H12.0002Z" fill="#338AF3"/>
<path d="M12.0006 0.000732422C10.3342 0.000732422 8.74728 0.340717 7.30493 0.954545V5.73987H12.0006C12.0006 4.64712 12.0006 3.71773 12.0006 2.60942H19.4704C17.4206 0.976857 14.8248 0.000732422 12.0006 0.000732422Z" fill="#338AF3"/>
</g>
<defs>
<clipPath id="clip0_612_10540">
<rect width="24" height="24" fill="white"/>
</clipPath>
</defs>
</svg>
