<svg width="24" height="24" viewBox="0 0 24 24" fill="none" xmlns="http://www.w3.org/2000/svg">
<g clip-path="url(#clip0_612_10609)">
<path d="M12 24C18.6274 24 24 18.6274 24 12C24 5.37258 18.6274 0 12 0C5.37258 0 0 5.37258 0 12C0 18.6274 5.37258 24 12 24Z" fill="#F0F0F0"/>
<path d="M12 -0.000976562C9.87837 -0.000976562 7.88581 0.550367 6.15649 1.51646V22.4816C7.88585 23.4477 9.87837 23.999 12 23.999C18.6274 23.999 24 18.6264 24 11.999C24 5.37165 18.6274 -0.000976562 12 -0.000976562Z" fill="#6DA544"/>
<path d="M6.19203 1.49829C5.4371 1.91665 4.7322 2.4139 4.08818 2.97921C4.15329 2.92212 4.21906 2.86568 4.28534 2.80999L13.4759 12.0006L4.28529 21.1912C4.21896 21.1355 4.15324 21.0791 4.08813 21.022C4.73215 21.5873 5.4371 22.0845 6.19198 22.5029L24.0002 12.0006L6.19203 1.49829Z" fill="#F0F0F0"/>
<path d="M5.17812 2.12695C4.81217 2.38036 4.4607 2.65303 4.12578 2.94445L11.9998 11.9997L4.12573 21.0549C4.46065 21.3463 4.81212 21.619 5.17808 21.8724L21.9457 11.9997L5.17812 2.12695Z" fill="#FFDA44"/>
<path d="M4.28504 2.80981C4.01827 3.03397 3.76084 3.26896 3.51465 3.5151L10.9565 12.0004L3.51465 20.4857C3.76084 20.7319 4.01823 20.9669 4.28504 21.191L13.4756 12.0004L4.28504 2.80981Z" fill="black"/>
<path d="M3.51471 3.51416C-1.17157 8.20044 -1.17157 15.7985 3.51471 20.4848C5.45126 18.5482 7.31375 16.6858 12 11.9995L3.51471 3.51416Z" fill="#D80027"/>
</g>
<defs>
<clipPath id="clip0_612_10609">
<rect width="24" height="24" fill="white"/>
</clipPath>
</defs>
</svg>
