<svg width="24" height="24" viewBox="0 0 24 24" fill="none" xmlns="http://www.w3.org/2000/svg">
<g clip-path="url(#clip0_612_10616)">
<path d="M24 12C24 18.6274 18.6274 24 12 24C5.37262 24 0 18.6274 0 12C0 5.37262 12 0 12 0C12 0 24 5.37262 24 12Z" fill="#A2001D"/>
<path d="M0 12C0 5.37262 5.37262 0 12 0C18.6274 0 24 5.37262 24 12" fill="#0052B4"/>
<path d="M16.1735 15.1305L11.9996 14.6088L7.82568 15.1305V8.86963H16.1735V15.1305Z" fill="#F0F0F0"/>
<path d="M11.9998 14.6083C13.1524 14.6083 14.0868 13.6739 14.0868 12.5213C14.0868 11.3687 13.1524 10.4343 11.9998 10.4343C10.8472 10.4343 9.91284 11.3687 9.91284 12.5213C9.91284 13.6739 10.8472 14.6083 11.9998 14.6083Z" fill="#0052B4"/>
<path d="M12.0003 13.5652C12.5766 13.5652 13.0438 13.0981 13.0438 12.5218C13.0438 11.9455 12.5766 11.4783 12.0003 11.4783C11.424 11.4783 10.9568 11.9455 10.9568 12.5218C10.9568 13.0981 11.424 13.5652 12.0003 13.5652Z" fill="#A2001D"/>
<path d="M10.4348 9.91333H13.5652L12 11.4786L10.4348 9.91333Z" fill="#6DA544"/>
<path d="M12.522 10.9556H11.4785V14.086H12.522V10.9556Z" fill="#FFDA44"/>
<path d="M13.6691 13.7747H10.3299L7.82568 15.1312H16.1735L13.6691 13.7747Z" fill="#6DA544"/>
</g>
<defs>
<clipPath id="clip0_612_10616">
<rect width="24" height="24" fill="white"/>
</clipPath>
</defs>
</svg>
