<svg width="24" height="24" viewBox="0 0 24 24" fill="none" xmlns="http://www.w3.org/2000/svg">
<g clip-path="url(#clip0_612_10685)">
<path d="M12 24C18.6274 24 24 18.6274 24 12C24 5.37258 18.6274 0 12 0C5.37258 0 0 5.37258 0 12C0 18.6274 5.37258 24 12 24Z" fill="#F0F0F0"/>
<path d="M16.5178 9.39213H13.5055L11.9994 6.78345L10.4933 9.39213H7.48096L8.98724 12.0008L7.48096 14.6095H10.4933L11.9994 17.2182L13.5055 14.6095H16.5178L15.0115 12.0008L16.5178 9.39213ZM13.8498 12.0008L12.9247 13.6034H11.0743L10.149 12.0008L11.0742 10.3983H12.9246L13.8498 12.0008ZM11.9994 8.79565L12.3437 9.39209H11.6551L11.9994 8.79565ZM9.22372 10.3983H9.91241L9.56807 10.9947L9.22372 10.3983ZM9.22372 13.6034L9.56812 13.0069L9.91246 13.6034H9.22372ZM11.9994 15.2059L11.6551 14.6095H12.3437L11.9994 15.2059ZM14.775 13.6034H14.0864L14.4307 13.0069L14.775 13.6034ZM14.0864 10.3983H14.775L14.4307 10.9947L14.0864 10.3983Z" fill="#0052B4"/>
<path d="M19.4696 2.60913H4.52985C3.43471 3.48138 2.49552 4.54085 1.76099 5.73958H22.2384C21.5038 4.5409 20.5647 3.48138 19.4696 2.60913Z" fill="#0052B4"/>
<path d="M4.52985 21.3914H19.4695C20.5647 20.5192 21.5038 19.4597 22.2384 18.261H1.76099C2.49556 19.4597 3.43475 20.5192 4.52985 21.3914Z" fill="#0052B4"/>
</g>
<defs>
<clipPath id="clip0_612_10685">
<rect width="24" height="24" fill="white"/>
</clipPath>
</defs>
</svg>
