<svg width="24" height="24" viewBox="0 0 24 24" fill="none" xmlns="http://www.w3.org/2000/svg">
<g clip-path="url(#clip0_612_10665)">
<path d="M12 24C18.6274 24 24 18.6274 24 12C24 5.37258 18.6274 0 12 0C5.37258 0 0 5.37258 0 12C0 18.6274 5.37258 24 12 24Z" fill="#F0F0F0"/>
<path d="M15.8978 8.86968H14.3278C14.3408 9.04222 14.3481 9.21632 14.3481 9.39139C14.3481 10.5522 14.058 11.6774 13.5521 12.4783C13.3961 12.7253 13.1339 13.0741 12.7829 13.3094V8.86963H11.2177V13.3094C10.8667 13.0741 10.6044 12.7253 10.4484 12.4783C9.94252 11.6774 9.65241 10.5522 9.65241 9.39139C9.65241 9.21632 9.65981 9.04218 9.67275 8.86968H8.10272C8.09264 9.04138 8.08716 9.21529 8.08716 9.39139C8.08716 12.6096 9.80597 15.1305 12.0002 15.1305C14.1944 15.1305 15.9132 12.6096 15.9132 9.39139C15.9133 9.21529 15.9078 9.04138 15.8978 8.86968Z" fill="#D80027"/>
<path d="M4.95696 5.73816H6.52216V6.78165H8.08736V5.73816H9.65257V6.78165H11.2178V5.73816H12.783V6.78165H14.3482V5.73816H15.9134V6.78165H17.4786V5.73816H19.0438V6.78165H22.8096C20.8687 2.7677 16.7579 -0.000976562 12.0004 -0.000976562C7.24296 -0.000976562 3.13216 2.7677 1.19116 6.78165H4.95696V5.73816Z" fill="#6DA544"/>
<path d="M19.0439 17.2168V18.2603H17.4787V17.2168H15.9135V18.2603H14.3483V17.2168H12.7831V18.2603H11.2179V17.2168H9.65271V18.2603H8.08751V17.2168H6.52216V18.2603H4.95696V17.2168H1.19116C3.13216 21.2307 7.24291 23.9994 12.0004 23.9994C16.758 23.9994 20.8687 21.2307 22.8097 17.2168H19.0439Z" fill="#D80027"/>
</g>
<defs>
<clipPath id="clip0_612_10665">
<rect width="24" height="24" fill="white"/>
</clipPath>
</defs>
</svg>
