<svg width="24" height="24" viewBox="0 0 24 24" fill="none" xmlns="http://www.w3.org/2000/svg">
<g clip-path="url(#clip0_612_10695)">
<path d="M12 24C18.6274 24 24 18.6274 24 12C24 5.37258 18.6274 0 12 0C5.37258 0 0 5.37258 0 12C0 18.6274 5.37258 24 12 24Z" fill="#FFDA44"/>
<path d="M19.3056 2.48087C17.2822 0.92551 14.7493 0.000244141 11.9999 0.000244141C9.25048 0.000244141 6.71754 0.925557 4.69409 2.48087L11.9999 9.78662L19.3056 2.48087Z" fill="#6DA544"/>
<path d="M2.48033 4.6936C0.925068 6.71706 -0.000244141 9.24995 -0.000244141 11.9994C-0.000244141 14.7488 0.925068 17.2817 2.48038 19.3052L9.78618 11.9994L2.48033 4.6936Z" fill="black"/>
<path d="M4.69409 21.5189C6.71759 23.0742 9.25048 23.9995 11.9999 23.9995C14.7493 23.9995 17.2822 23.0742 19.3057 21.5189L11.9999 14.2131L4.69409 21.5189Z" fill="#6DA544"/>
<path d="M21.5194 19.3051C23.0747 17.2816 24 14.7488 24 11.9994C24 9.24995 23.0747 6.71706 21.5194 4.6936L14.2136 11.9994L21.5194 19.3051Z" fill="black"/>
</g>
<defs>
<clipPath id="clip0_612_10695">
<rect width="24" height="24" fill="white"/>
</clipPath>
</defs>
</svg>
