<svg width="24" height="24" viewBox="0 0 24 24" fill="none" xmlns="http://www.w3.org/2000/svg">
<g clip-path="url(#clip0_612_10720)">
<path d="M12 24C18.6274 24 24 18.6274 24 12C24 5.37258 18.6274 0 12 0C5.37258 0 0 5.37258 0 12C0 18.6274 5.37258 24 12 24Z" fill="#F0F0F0"/>
<path d="M12.0002 -0.000732422C7.24267 -0.000732422 3.13192 2.76794 1.19092 6.78189H22.8094C20.8685 2.76794 16.7577 -0.000732422 12.0002 -0.000732422Z" fill="black"/>
<path d="M12.0002 24.0002C7.24267 24.0002 3.13192 21.2315 1.19092 17.2175H22.8094C20.8685 21.2315 16.7577 24.0002 12.0002 24.0002Z" fill="#496E2D"/>
<path d="M23.4333 8.34717H0.566672C0.199078 9.49884 0 10.7258 0 11.9993C0 13.2729 0.199078 14.4998 0.566672 15.6515H23.4333C23.8009 14.4998 24 13.2729 24 11.9993C24 10.7258 23.8009 9.49884 23.4333 8.34717Z" fill="#A2001D"/>
<path d="M15.7367 5.54508L14.3156 4.88916L12.0001 10.1322L9.68454 4.88916L8.26343 5.54508L11.1382 11.9997L8.26343 18.4544L9.68454 19.1103L12.0001 13.8673L14.3156 19.1103L15.7367 18.4544L12.862 11.9997L15.7367 5.54508Z" fill="#F0F0F0"/>
<path d="M12.9653 6.16321C12.4152 5.56242 12.0001 5.21704 12.0001 5.21704C12.0001 5.21704 11.585 5.56237 11.0349 6.16321V17.836C11.585 18.4369 12.0001 18.7823 12.0001 18.7823C12.0001 18.7823 12.4152 18.437 12.9653 17.8361V6.16321Z" fill="#F0F0F0"/>
<path d="M9.3916 8.40238V15.5983C9.97294 16.6283 10.6845 17.4726 11.2177 18.0324V5.96826C10.6845 6.528 9.9729 7.37235 9.3916 8.40238Z" fill="#A2001D"/>
<path d="M14.6088 8.40287C14.0274 7.3728 13.316 6.52848 12.7827 5.96875V18.0329C13.3159 17.4731 14.0274 16.6288 14.6088 15.5987V8.40287Z" fill="#A2001D"/>
<path d="M14.6086 8.40088V15.5968C15.1972 14.5538 15.6521 13.3206 15.6521 11.9989C15.6521 10.6771 15.1972 9.44385 14.6086 8.40088Z" fill="black"/>
<path d="M9.39139 8.40088V15.5968C8.80287 14.5538 8.3479 13.3206 8.3479 11.9989C8.3479 10.6771 8.80287 9.44385 9.39139 8.40088Z" fill="black"/>
</g>
<defs>
<clipPath id="clip0_612_10720">
<rect width="24" height="24" fill="white"/>
</clipPath>
</defs>
</svg>
