<svg width="24" height="24" viewBox="0 0 24 24" fill="none" xmlns="http://www.w3.org/2000/svg">
<g clip-path="url(#clip0_612_10733)">
<path d="M0 12C0 5.37262 5.37262 0 12 0C18.6274 0 24 5.37262 24 12" fill="#D80027"/>
<path d="M16.1735 11.16L14.4679 11.9622L15.3762 13.614L13.5242 13.2597L13.2895 15.1305L11.9996 13.7545L10.7096 15.1305L10.475 13.2597L8.62298 13.6139L9.53118 11.9622L7.82568 11.16L9.53118 10.3577L8.62298 8.70605L10.4749 9.06023L10.7096 7.18945L11.9996 8.56537L13.2896 7.18945L13.5242 9.06023L15.3762 8.70605L14.4681 10.3578L16.1735 11.16Z" fill="#FFDA44"/>
<path d="M15.1305 3.913H12.7827C12.7827 3.48086 12.4323 3.13037 12.0001 3.13037C11.5679 3.13037 11.2175 3.48081 11.2175 3.913H8.86963C8.86963 4.34518 9.24613 4.69562 9.67832 4.69562H9.65221C9.65221 5.12781 10.0026 5.47824 10.4348 5.47824C10.4348 5.91043 10.7852 6.26087 11.2175 6.26087H12.7827C13.2148 6.26087 13.5653 5.91048 13.5653 5.47824C13.9974 5.47824 14.3479 5.12785 14.3479 4.69562H14.3218C14.754 4.69562 15.1305 4.34523 15.1305 3.913Z" fill="#FFDA44"/>
<path d="M24.0002 11.9995C24.0002 18.6269 18.6276 23.9995 12.0002 23.9995C5.37287 23.9995 0.000244141 18.6269 0.000244141 11.9995C0.521963 11.9995 24.0002 11.9995 24.0002 11.9995Z" fill="#F0F0F0"/>
<path d="M12.0004 24.0005C15.7515 24.0005 19.0999 22.279 21.3005 19.5835C20.9047 19.3137 20.691 18.8774 20.0003 18.8774C19.0003 18.8774 19.0003 19.7918 18.0003 19.7918C17.0004 19.7918 17.0004 18.8774 16.0004 18.8774C15.0004 18.8774 15.0004 19.7918 14.0004 19.7918C13.0004 19.7918 13.0003 18.8774 12.0002 18.8774C11.0003 18.8774 11.0003 19.7918 10.0003 19.7918C9.00048 19.7918 9.00048 18.8774 8.00049 18.8774C7.00041 18.8774 7.00041 19.7918 6.00034 19.7918C5.00026 19.7918 5.00026 18.8774 4.00018 18.8774C3.30952 18.8774 3.09582 19.3136 2.7002 19.5834C4.9007 22.279 8.24935 24.0005 12.0004 24.0005Z" fill="#0052B4"/>
<path d="M21.9999 13.5313C20.9999 13.5313 20.9999 12.6169 19.9998 12.6169C18.9999 12.6169 18.9999 13.5313 17.9999 13.5313C17 13.5313 16.9999 12.6169 16 12.6169C15 12.6169 15 13.5313 14 13.5313C13 13.5313 12.9999 12.6169 11.9998 12.6169C10.9998 12.6169 10.9998 13.5313 9.99991 13.5313C9.00006 13.5313 9.00006 12.6169 8.00008 12.6169C7 12.6169 7 13.5313 5.99992 13.5313C4.99984 13.5313 4.99984 12.6169 3.99977 12.6169C2.99992 12.6169 2.99992 13.5313 1.99994 13.5313C1.00534 13.5313 0.999578 12.627 0.015625 12.6174C0.0433281 13.1663 0.108859 13.7051 0.207953 14.2321C1.00502 14.3493 1.07481 15.1313 1.99998 15.1313C2.99997 15.1313 2.99997 14.217 3.99981 14.217C4.99989 14.217 4.99989 15.1313 5.99997 15.1313C7.00005 15.1313 7.00005 14.217 8.00012 14.217C9.00011 14.217 9.00011 15.1313 9.99995 15.1313C10.9999 15.1313 10.9999 14.217 11.9999 14.217C13 14.217 13 15.1313 14 15.1313C15.0001 15.1313 15.0001 14.217 16 14.217C17 14.217 17 15.1313 18 15.1313C18.9999 15.1313 19 14.217 19.9999 14.217C21 14.217 21 15.1313 21.9999 15.1313C22.9252 15.1313 22.995 14.3493 23.7921 14.2322C23.8912 13.7051 23.9567 13.1663 23.9845 12.6174C23.0004 12.6271 22.9945 13.5313 21.9999 13.5313Z" fill="#0052B4"/>
<path d="M20 15.7478C19 15.7478 19 16.6621 18.0001 16.6621C17.0001 16.6621 17.0001 15.7478 16.0002 15.7478C15.0002 15.7478 15.0002 16.6621 14.0001 16.6621C13.0001 16.6621 13.0001 15.7478 12 15.7478C11 15.7478 11 16.6621 10.0001 16.6621C9.00023 16.6621 9.00023 15.7478 8.00024 15.7478C7.00017 15.7478 7.00017 16.6621 6.00009 16.6621C5.00001 16.6621 5.00001 15.7478 3.99993 15.7478C3.00009 15.7478 3.00009 16.6621 2.0001 16.6621C1.28559 16.6621 1.08149 16.1955 0.658447 15.9288C0.940072 16.7425 1.30645 17.5166 1.74768 18.2401C1.82442 18.2543 1.90795 18.2621 2.0001 18.2621C3.00009 18.2621 3.00009 17.3479 3.99993 17.3479C5.00001 17.3479 5.00001 18.2621 6.00009 18.2621C7.00017 18.2621 7.00017 17.3479 8.00024 17.3479C9.00023 17.3479 9.00023 18.2621 10.0001 18.2621C11.0001 18.2621 11.0001 17.3479 12 17.3479C13.0001 17.3479 13.0001 18.2621 14.0001 18.2621C15.0002 18.2621 15.0002 17.3479 16.0002 17.3479C17.0002 17.3479 17.0001 18.2621 18.0001 18.2621C19 18.2621 19.0001 17.3479 20 17.3479C21.0001 17.3479 21.0001 18.2621 22 18.2621C22.0923 18.2621 22.1758 18.2543 22.2525 18.2401C22.6938 17.5166 23.0601 16.7425 23.3419 15.9289C22.9188 16.1954 22.7146 16.6621 22 16.6621C21.0001 16.6621 21.0001 15.7478 20 15.7478Z" fill="#0052B4"/>
<path d="M23.963 11.0511C23.0007 11.0738 22.9874 11.9644 22.0001 11.9644C21.0001 11.9644 21.0001 11.05 20.0001 11.05C19.0001 11.05 19.0001 11.9644 18.0001 11.9644C17.0002 11.9644 17.0002 11.05 16.0002 11.05C15.0002 11.05 15.0002 11.9644 14.0002 11.9644C13.0002 11.9644 13.0001 11.05 12.0001 11.05C11.0001 11.05 11.0001 11.9644 10.0001 11.9644C9.00029 11.9644 9.00029 11.05 8.00031 11.05C7.00023 11.05 7.00023 11.9644 6.00015 11.9644C5.00007 11.9644 5.00007 11.05 3.99999 11.05C3.00015 11.05 3.00015 11.9644 2.00017 11.9644C1.01303 11.9644 0.999666 11.0739 0.037416 11.0511C0.0129941 11.3639 0.000244141 11.68 0.000244141 11.9991C0.000244141 12.2177 0.00643164 12.4349 0.0181035 12.6505C0.999807 12.6616 1.00632 13.5643 2.00021 13.5643C3.0002 13.5643 3.0002 12.6501 4.00004 12.6501C5.00012 12.6501 5.00012 13.5643 6.0002 13.5643C7.00028 13.5643 7.00028 12.6501 8.00035 12.6501C9.00034 12.6501 9.00034 13.5643 10.0002 13.5643C11.0002 13.5643 11.0002 12.6501 12.0001 12.6501C13.0002 12.6501 13.0002 13.5643 14.0003 13.5643C15.0003 13.5643 15.0003 12.6501 16.0003 12.6501C17.0003 12.6501 17.0003 13.5643 18.0002 13.5643C19.0001 13.5643 19.0002 12.6501 20.0001 12.6501C21.0002 12.6501 21.0002 13.5643 22.0001 13.5643C22.9941 13.5643 23.0006 12.6616 23.9825 12.6505C23.9941 12.4348 24.0002 12.2177 24.0002 11.9991C24.0002 11.68 23.9875 11.3639 23.963 11.0511Z" fill="#F0F0F0"/>
</g>
<defs>
<clipPath id="clip0_612_10733">
<rect width="24" height="24" fill="white"/>
</clipPath>
</defs>
</svg>
