<svg width="24" height="24" viewBox="0 0 24 24" fill="none" xmlns="http://www.w3.org/2000/svg">
<g clip-path="url(#clip0_612_11044)">
<path d="M12 24C18.6274 24 24 18.6274 24 12C24 5.37258 18.6274 0 12 0C5.37258 0 0 5.37258 0 12C0 18.6274 5.37258 24 12 24Z" fill="#F0F0F0"/>
<path d="M11.9999 -0.000244141C8.36285 -0.000244141 5.10396 1.61807 2.90332 4.17365H21.0965C18.8959 1.61807 15.637 -0.000244141 11.9999 -0.000244141Z" fill="#0052B4"/>
<path d="M21.0963 19.8269H2.90308C5.10372 22.3825 8.36261 24.0008 11.9997 24.0008C15.6368 24.0008 18.8957 22.3825 21.0963 19.8269Z" fill="#0052B4"/>
<path d="M22.2387 5.73853H1.76128C0.644297 7.56126 0 9.705 0 11.9994C0 14.2938 0.644297 16.4376 1.76128 18.2603H22.2387C23.3557 16.4376 24 14.2938 24 11.9994C24 9.705 23.3557 7.56126 22.2387 5.73853Z" fill="#D80027"/>
<path d="M7.38275 16.6183C9.93286 16.6183 12.0001 14.551 12.0001 12.0009C12.0001 9.45082 9.93286 7.38354 7.38275 7.38354C4.83265 7.38354 2.76538 9.45082 2.76538 12.0009C2.76538 14.551 4.83265 16.6183 7.38275 16.6183Z" fill="#F0F0F0"/>
<path d="M7.3823 7.38354L8.41828 10.572H11.7763L9.05864 12.5428L10.1027 15.7408L7.3823 13.7607L4.66599 15.7371L5.70596 12.5428L2.99072 10.572H6.34627L7.3823 7.38354Z" fill="#D80027"/>
</g>
<defs>
<clipPath id="clip0_612_11044">
<rect width="24" height="24" fill="white"/>
</clipPath>
</defs>
</svg>
