<svg width="24" height="24" viewBox="0 0 24 24" fill="none" xmlns="http://www.w3.org/2000/svg">
<g clip-path="url(#clip0_612_10775)">
<path d="M0 11.9999C0 13.8697 0.427828 15.6396 1.19072 17.2173L12 17.739L22.8093 17.2173C23.5722 15.6396 24 13.8697 24 11.9999C24 10.13 23.5722 8.36013 22.8093 6.78251L12 6.26074L1.19072 6.78246C0.427828 8.36013 0 10.13 0 11.9999Z" fill="#F0F0F0"/>
<path d="M12.0004 24.0002C16.7579 24.0002 20.8687 21.2315 22.8097 17.2175H1.19116C3.13216 21.2315 7.24291 24.0002 12.0004 24.0002Z" fill="#6DA544"/>
<path d="M12.0004 -0.000732422C7.24291 -0.000732422 3.13216 2.76794 1.19116 6.78189H22.8097C20.8687 2.76794 16.7579 -0.000732422 12.0004 -0.000732422Z" fill="#0052B4"/>
<path d="M12.7831 11.7392V8.86963H11.2179V11.7392L9.32739 13.6297C9.87719 14.5297 10.8686 15.1305 12.0005 15.1305C13.1323 15.1305 14.1237 14.5297 14.6736 13.6297L12.7831 11.7392Z" fill="black"/>
</g>
<defs>
<clipPath id="clip0_612_10775">
<rect width="24" height="24" fill="white"/>
</clipPath>
</defs>
</svg>
