<svg width="24" height="24" viewBox="0 0 24 24" fill="none" xmlns="http://www.w3.org/2000/svg">
<g clip-path="url(#clip0_612_10764)">
<path d="M12 24C18.6274 24 24 18.6274 24 12C24 5.37258 18.6274 0 12 0C5.37258 0 0 5.37258 0 12C0 18.6274 5.37258 24 12 24Z" fill="#F0F0F0"/>
<path d="M12.0004 -0.000732422C6.4561 -0.000732422 1.79082 3.75963 0.413818 8.86881H23.5871C22.21 3.75963 17.5448 -0.000732422 12.0004 -0.000732422Z" fill="#A2001D"/>
<path d="M12.0002 23.9987C17.5445 23.9987 22.2098 20.2383 23.5868 15.1292H0.413574C1.79057 20.2383 6.45586 23.9987 12.0002 23.9987Z" fill="#A2001D"/>
</g>
<defs>
<clipPath id="clip0_612_10764">
<rect width="24" height="24" fill="white"/>
</clipPath>
</defs>
</svg>
