<svg width="24" height="24" viewBox="0 0 24 24" fill="none" xmlns="http://www.w3.org/2000/svg">
<g clip-path="url(#clip0_612_10901)">
<path d="M17.217 1.19121C15.6394 0.428363 13.8695 0.000488281 11.9996 0.000488281C10.1298 0.000488281 8.35988 0.428363 6.78225 1.19121L5.73877 12.0005L6.78225 22.8098C8.35988 23.5726 10.1298 24.0005 11.9996 24.0005C13.8695 24.0005 15.6394 23.5726 17.217 22.8098L18.2605 12.0005L17.217 1.19121Z" fill="#FFDA44"/>
<path d="M6.78262 1.19214C2.76872 3.13309 0 7.24351 0 12.001C0 16.7585 2.76872 20.8689 6.78262 22.8099V1.19214Z" fill="#0052B4"/>
<path d="M17.2173 1.19214V22.8099C21.2312 20.8689 23.9999 16.7585 23.9999 12.001C23.9999 7.24351 21.2312 3.13309 17.2173 1.19214Z" fill="#D80027"/>
<path d="M16.1735 9.44228H13.3039C13.3039 8.72191 12.7199 8.13794 11.9996 8.13794C11.2792 8.13794 10.6952 8.72191 10.6952 9.44228H7.82568C7.82568 10.1515 8.44354 10.7265 9.15271 10.7265H9.10996C9.10996 11.4358 9.68493 12.0108 10.3942 12.0108C10.3942 12.6388 10.8453 13.1606 11.441 13.2722L10.4289 15.5569C10.9139 15.754 11.4438 15.8636 11.9996 15.8636C12.5553 15.8636 13.0853 15.754 13.5702 15.5569L12.5582 13.2722C13.1539 13.1606 13.6049 12.6388 13.6049 12.0108C14.3142 12.0108 14.8892 11.4358 14.8892 10.7265H14.8464C15.5557 10.7265 16.1735 10.1515 16.1735 9.44228Z" fill="#FF9811"/>
<path d="M12.0001 11.2178L10.3044 12.0004V13.5656L12.0001 14.6091L13.6957 13.5656V12.0004L12.0001 11.2178Z" fill="#0052B4"/>
<path d="M13.6957 10.4341H10.3044V11.9993H13.6957V10.4341Z" fill="#D80027"/>
</g>
<defs>
<clipPath id="clip0_612_10901">
<rect width="24" height="24" fill="white"/>
</clipPath>
</defs>
</svg>
