<svg width="24" height="24" viewBox="0 0 24 24" fill="none" xmlns="http://www.w3.org/2000/svg">
<g clip-path="url(#clip0_612_10924)">
<path d="M12 24C18.6274 24 24 18.6274 24 12C24 5.37258 18.6274 0 12 0C5.37258 0 0 5.37258 0 12C0 18.6274 5.37258 24 12 24Z" fill="#FFDA44"/>
<path d="M24.0002 11.9997C24.0002 7.88122 21.9251 4.24775 18.7637 2.08667H5.23679C2.0754 4.24775 0.000244141 7.88122 0.000244141 11.9997C0.000244141 16.1183 2.0754 19.7517 5.23679 21.9127H18.7637C21.9251 19.7517 24.0002 16.1183 24.0002 11.9997Z" fill="#A2001D"/>
<path d="M9.39185 8.87015H14.6092V6.78323L13.5657 7.30495L12.0005 5.73975L10.4353 7.30495L9.39185 6.78323V8.87015Z" fill="#FFDA44"/>
<path d="M16.6963 12.0002H14.0886C14.1909 11.8233 14.2504 11.6186 14.2504 11.3996C14.2504 10.7346 13.7112 10.1956 13.0463 10.1956C12.5869 10.1956 12.1879 10.453 11.9849 10.8313C11.7819 10.4529 11.3829 10.1956 10.9234 10.1956C10.2585 10.1956 9.71942 10.7346 9.71942 11.3996C9.71942 11.6186 9.77895 11.8233 9.88113 12.0002H7.30493C7.30493 12.7982 7.99995 13.445 8.79785 13.445H8.74976C8.74976 14.0995 9.18509 14.6522 9.78195 14.8297L8.60927 16.0024L9.71604 17.1092L11.286 15.5392C11.3475 15.5618 11.4111 15.5798 11.4769 15.5921L10.5282 17.7341C10.9828 17.919 11.4797 18.0216 12.0007 18.0216C12.5217 18.0216 13.0185 17.919 13.4731 17.7341L12.5245 15.5921C12.5902 15.5798 12.6538 15.5618 12.7152 15.5392L14.2852 17.1092L15.3919 16.0024L14.2192 14.8297C14.816 14.6521 15.2514 14.0995 15.2514 13.445H15.2033C16.0013 13.445 16.6963 12.7982 16.6963 12.0002Z" fill="#FFDA44"/>
<path d="M12.0006 12.7827L10.3049 13.5653V15.1305L12.0006 16.174L13.6963 15.1305V13.5653L12.0006 12.7827Z" fill="#6DA544"/>
<path d="M13.6963 11.9993H10.3049V14.0862H13.6963V11.9993Z" fill="#0052B4"/>
</g>
<defs>
<clipPath id="clip0_612_10924">
<rect width="24" height="24" fill="white"/>
</clipPath>
</defs>
</svg>
