<svg width="24" height="24" viewBox="0 0 24 24" fill="none" xmlns="http://www.w3.org/2000/svg">
<g clip-path="url(#clip0_612_10911)">
<path d="M11.9996 24.0005C13.4675 24.0005 14.8736 23.7365 16.1735 23.2541L16.6953 12.0005L16.1735 0.746879C14.8736 0.264535 13.4675 0.000488281 11.9996 0.000488281C10.5318 0.000488281 9.12566 0.264535 7.82572 0.746879L7.30396 12.0005L7.82567 23.2541C9.12566 23.7365 10.5318 24.0005 11.9996 24.0005Z" fill="#0052B4"/>
<path d="M-0.000244141 12.0002C-0.000244141 17.1598 3.25626 21.5583 7.82587 23.2538V0.746582C3.25626 2.4421 -0.000244141 6.84061 -0.000244141 12.0002Z" fill="#A2001D"/>
<path d="M16.1736 0.746094V23.2534C20.7432 21.5578 23.9997 17.1593 23.9997 11.9997C23.9997 6.84013 20.7432 2.44161 16.1736 0.746094Z" fill="#A2001D"/>
<path d="M6.7825 11.9988H5.73901V16.1727H6.7825V11.9988Z" fill="#FFDA44"/>
<path d="M2.60867 11.9988H1.56519V16.1727H2.60867V11.9988Z" fill="#FFDA44"/>
<path d="M4.17361 14.6085C4.74991 14.6085 5.2171 14.1413 5.2171 13.565C5.2171 12.9887 4.74991 12.5215 4.17361 12.5215C3.59731 12.5215 3.13013 12.9887 3.13013 13.565C3.13013 14.1413 3.59731 14.6085 4.17361 14.6085Z" fill="#FFDA44"/>
<path d="M4.17382 10.4336C4.46196 10.4336 4.69554 10.2 4.69554 9.91185C4.69554 9.62372 4.46196 9.39014 4.17382 9.39014C3.88568 9.39014 3.6521 9.62372 3.6521 9.91185C3.6521 10.2 3.88568 10.4336 4.17382 10.4336Z" fill="#FFDA44"/>
<path d="M5.21734 15.1289H3.13037V16.1724H5.21734V15.1289Z" fill="#FFDA44"/>
<path d="M5.21734 10.9551H3.13037V11.9986H5.21734V10.9551Z" fill="#FFDA44"/>
<path d="M4.17433 6.26001L4.5439 7.3972H5.73958L4.77232 8.10004L5.1416 9.23723L4.17433 8.53439L3.20711 9.23723L3.5764 8.10004L2.60913 7.3972H3.80482L4.17433 6.26001Z" fill="#FFDA44"/>
</g>
<defs>
<clipPath id="clip0_612_10911">
<rect width="24" height="24" fill="white"/>
</clipPath>
</defs>
</svg>
