<svg width="24" height="24" viewBox="0 0 24 24" fill="none" xmlns="http://www.w3.org/2000/svg">
<g clip-path="url(#clip0_612_11052)">
<path d="M12 24C18.6274 24 24 18.6274 24 12C24 5.37258 18.6274 0 12 0C5.37258 0 0 5.37258 0 12C0 18.6274 5.37258 24 12 24Z" fill="#338AF3"/>
<path d="M11.6213 19.556C11.2978 19.5404 11.0302 19.3301 10.9253 19.0447C10.7401 19.2862 10.4218 19.4078 10.1083 19.327C9.79418 19.2461 9.57457 18.9863 9.52915 18.6847C9.29852 18.884 8.96252 18.9382 8.67195 18.7958C8.38081 18.6529 8.21806 18.3539 8.23474 18.0497C7.9692 18.1989 7.62902 18.1843 7.37285 17.986C7.1172 17.7877 7.01754 17.4627 7.09474 17.1679C6.80463 17.2608 6.47492 17.1784 6.2636 16.9326C6.05229 16.6874 6.0199 16.3488 6.15457 16.0759C5.85195 16.1082 5.5452 15.9611 5.3876 15.6784C5.22949 15.3956 5.26606 15.057 5.45332 14.8164C5.15018 14.7872 4.87887 14.5811 4.78184 14.2722C4.68429 13.9634 4.78863 13.6388 5.02081 13.4411C4.72967 13.3513 4.50635 13.0946 4.47349 12.7727C4.44063 12.4508 4.6076 12.155 4.87418 12.0079C4.60756 11.8618 4.43956 11.566 4.47138 11.2446C4.47138 11.2446 4.47138 11.2446 4.4719 11.2446C4.50373 10.9221 4.72704 10.6649 5.01762 10.5741C4.78545 10.3769 4.68007 10.0529 4.77659 9.74399C4.8731 9.43462 5.14385 9.22799 5.44704 9.19771C5.25973 8.95771 5.22218 8.61904 5.37921 8.33582C5.53624 8.05302 5.84304 7.90537 6.14618 7.9372C6.01052 7.66434 6.04235 7.32571 6.25315 7.07948C6.46343 6.83376 6.79315 6.75079 7.08377 6.84262C7.00549 6.54834 7.10463 6.22279 7.36029 6.02404C7.61543 5.82519 7.9556 5.81005 8.22115 5.95823C8.20395 5.6541 8.36618 5.35509 8.65681 5.2116C8.94692 5.06863 9.28343 5.12188 9.51452 5.32115C9.55887 5.01965 9.77852 4.75879 10.0921 4.67732C10.4051 4.59595 10.7234 4.71646 10.9091 4.95749C11.014 4.67212 11.2811 4.46132 11.6046 4.44515C11.9276 4.42851 12.2145 4.61001 12.3481 4.88296C12.5077 4.62416 12.8114 4.47079 13.1312 4.5193C13.4516 4.5673 13.6973 4.80309 13.7735 5.09793C13.9822 4.8756 14.3109 4.78748 14.6145 4.89909C14.9187 5.01126 15.1117 5.29194 15.1264 5.59663C15.3752 5.42137 15.7154 5.40098 15.9904 5.57212C16.2653 5.74274 16.3973 6.05629 16.3504 6.35732C16.6295 6.23577 16.9665 6.28429 17.2013 6.50652C17.4361 6.72932 17.5029 7.0627 17.3965 7.34807C17.6944 7.28493 18.0147 7.39973 18.2005 7.66527C18.3862 7.9303 18.3846 8.27048 18.2234 8.52876C18.5276 8.52665 18.8182 8.70407 18.9471 9.00093C19.0754 9.2983 19.005 9.63173 18.7947 9.85241C19.0937 9.9119 19.3426 10.1441 19.4083 10.4613C19.4735 10.7785 19.3373 11.09 19.0874 11.2637C19.3671 11.3822 19.5643 11.6592 19.5648 11.9827C19.5648 11.9863 19.5648 11.9895 19.5648 11.9931C19.5648 11.9953 19.5648 11.9978 19.5648 11.9999C19.5648 12.3234 19.3686 12.601 19.089 12.7205C19.3394 12.8932 19.4766 13.2046 19.4114 13.5218C19.3467 13.839 19.0984 14.0718 18.7994 14.1323C19.0102 14.3525 19.0817 14.6853 18.9539 14.9833C18.8261 15.2806 18.5354 15.4586 18.2307 15.457C18.3925 15.7153 18.3951 16.0554 18.2099 16.321C18.0247 16.5866 17.7049 16.7024 17.4069 16.6398C17.5139 16.9246 17.4476 17.2586 17.2134 17.4819C16.9786 17.7047 16.6421 17.7537 16.3629 17.6332C16.4104 17.9337 16.2789 18.2478 16.0045 18.4195C15.73 18.5911 15.3898 18.5713 15.1405 18.3965C15.1264 18.7012 14.9344 18.9824 14.6307 19.0951C14.6307 19.0951 14.6307 19.0951 14.6302 19.0951C14.3266 19.2073 13.9979 19.1197 13.7887 18.898C13.7135 19.1933 13.4683 19.4296 13.148 19.4787C12.8282 19.5272 12.524 19.3748 12.3638 19.116C12.2365 19.3785 11.9673 19.5569 11.6605 19.5569C11.6474 19.5571 11.6344 19.5566 11.6213 19.556Z" fill="#F3F3F3"/>
<path d="M12.0003 17.2182C14.8818 17.2182 17.2177 14.8823 17.2177 12.0008C17.2177 9.11934 14.8818 6.78345 12.0003 6.78345C9.11886 6.78345 6.78296 9.11934 6.78296 12.0008C6.78296 14.8823 9.11886 17.2182 12.0003 17.2182Z" fill="#338AF3"/>
<path d="M13.1418 10.2288C13.3981 10.0387 13.565 9.73482 13.565 9.39113V8.86941C13.565 8.29308 13.0978 7.82593 12.5215 7.82593H11.478C10.9017 7.82593 10.4346 8.29308 10.4346 8.86941V9.39113C10.4346 9.73482 10.6014 10.0387 10.8577 10.2288L9.91284 19.8259C9.91284 19.8259 10.4346 20.3477 11.9998 20.3477C13.5651 20.3477 14.0868 19.8259 14.0868 19.8259L13.1418 10.2288Z" fill="#BDBCC1"/>
<path d="M12.0002 7.82593L12.9067 10.6158H15.8404L13.4671 12.3403L14.3735 15.1303L12.0002 13.406L9.62687 15.1303L10.5335 12.3403L8.16016 10.6158H11.0937L12.0002 7.82593Z" fill="#F0F0F0"/>
</g>
<defs>
<clipPath id="clip0_612_11052">
<rect width="24" height="24" fill="white"/>
</clipPath>
</defs>
</svg>
