<svg width="24" height="24" viewBox="0 0 24 24" fill="none" xmlns="http://www.w3.org/2000/svg">
<g clip-path="url(#clip0_612_10947)">
<path d="M12 24C18.6274 24 24 18.6274 24 12C24 5.37258 18.6274 0 12 0C5.37258 0 0 5.37258 0 12C0 18.6274 5.37258 24 12 24Z" fill="#F0F0F0"/>
<path d="M6.48568 16.696L3.51465 20.4853C5.68609 22.657 8.68576 24.0004 11.9995 24.0004C16.9603 24.0004 21.2172 20.9897 23.0447 16.696H6.48568Z" fill="#FFDA44"/>
<path d="M23.0634 7.34829C21.2461 3.03152 16.9771 0.000488281 11.9995 0.000488281C8.68576 0.000488281 5.68609 1.34388 3.51465 3.5156L6.51981 7.34829H23.0634Z" fill="#496E2D"/>
<path d="M2.60864 8.82593V15.1302H23.5866C23.8558 14.1322 23.9999 13.083 23.9999 11.9998C23.9999 10.901 23.8519 9.83693 23.5752 8.82593H2.60864Z" fill="black"/>
<path d="M3.51422 3.51416C-1.17206 8.20044 -1.17206 15.7985 3.51422 20.4848C5.45077 18.5482 7.31325 16.6858 11.9995 11.9995L3.51422 3.51416Z" fill="#A2001D"/>
<path d="M4.85694 8.86938L5.6339 11.2608H8.14855L6.11427 12.7388L6.89118 15.1303L4.85694 13.6523L2.82262 15.1303L3.59971 12.7388L1.56543 11.2608H4.0799L4.85694 8.86938Z" fill="#FFDA44"/>
<path d="M7.13101 11.9993H2.58301V14.0862H7.13101V11.9993Z" fill="#F0F0F0"/>
<path d="M7.99228 9.60729L7.25442 8.86938L4.85686 11.2669L2.45929 8.86938L1.72144 9.60729L4.12111 12.0027L1.72144 14.4024L2.45929 15.1303L4.85686 12.737L7.25442 15.1303L7.99228 14.4024L5.59261 12.0027L7.99228 9.60729Z" fill="black"/>
</g>
<defs>
<clipPath id="clip0_612_10947">
<rect width="24" height="24" fill="white"/>
</clipPath>
</defs>
</svg>
