<svg width="24" height="24" viewBox="0 0 24 24" fill="none" xmlns="http://www.w3.org/2000/svg">
<g clip-path="url(#clip0_612_11010)">
<path d="M1.19023 6.78225C0.427387 8.35988 -0.000488281 10.1297 -0.000488281 11.9996C-0.000488281 13.8695 0.427387 15.6394 1.19023 17.217L11.9995 18.2605L22.8088 17.217C23.5716 15.6394 23.9995 13.8695 23.9995 11.9996C23.9995 10.1297 23.5716 8.35988 22.8088 6.78225L11.9995 5.73877L1.19023 6.78225Z" fill="#F0F0F0"/>
<path d="M1.19092 17.2183C3.13182 21.2322 7.24225 24.0009 11.9998 24.0009C16.7573 24.0009 20.8677 21.2322 22.8086 17.2183H1.19092Z" fill="#6DA544"/>
<path d="M1.19092 6.78214H22.8086C20.8677 2.76818 16.7573 -0.000488281 11.9998 -0.000488281C7.24229 -0.000488281 3.13182 2.76818 1.19092 6.78214Z" fill="#FF9811"/>
<path d="M12.0001 16.174C14.3052 16.174 16.174 14.3052 16.174 12.0001C16.174 9.69489 14.3052 7.82617 12.0001 7.82617C9.69489 7.82617 7.82617 9.69489 7.82617 12.0001C7.82617 14.3052 9.69489 16.174 12.0001 16.174Z" fill="#FF9811"/>
</g>
<defs>
<clipPath id="clip0_612_11010">
<rect width="24" height="24" fill="white"/>
</clipPath>
</defs>
</svg>
