<svg width="24" height="24" viewBox="0 0 24 24" fill="none" xmlns="http://www.w3.org/2000/svg">
<g clip-path="url(#clip0_612_11126)">
<path d="M24 12C24 18.6274 18.6274 24 12 24C5.37262 24 0 18.6274 0 12C0 12.0029 12 0.0013125 12 0C18.6274 0 24 5.37262 24 12Z" fill="#0052B4"/>
<path d="M11.9685 12.0007H12.0007C12.0007 11.9899 12.0007 11.9794 12.0007 11.9685C11.99 11.9793 11.9793 11.99 11.9685 12.0007Z" fill="#F0F0F0"/>
<path d="M12.0005 6.2611C12.0005 4.14962 12.0005 2.7661 12.0005 0.000244141H11.9985C5.37194 0.00136914 0.000488281 5.37348 0.000488281 12.0002H6.26134V8.47473L9.78686 12.0002H11.9684C11.9791 11.9896 11.9898 11.9789 12.0005 11.9681C12.0005 11.1597 12.0005 10.4383 12.0005 9.78671L8.47492 6.2611H12.0005Z" fill="#F0F0F0"/>
<path d="M6.07124 1.56494C4.19441 2.63365 2.63409 4.19393 1.56543 6.07076V11.9997H4.69588V4.69549V4.6954H12.0002C12.0002 3.70807 12.0002 2.76747 12.0002 1.56494H6.07124Z" fill="#D80027"/>
<path d="M12.0004 10.5247L7.73686 6.26123H6.26123V6.26132L12.0003 12.0003H12.0004C12.0004 12.0003 12.0004 10.9828 12.0004 10.5247Z" fill="#D80027"/>
<path d="M18.783 7.30376L17.2178 7.82552L15.6526 7.30376L15.1309 5.99941L15.6526 4.69507H18.783L18.2613 5.99941L18.783 7.30376Z" fill="#ACABB1"/>
<path d="M13.5649 7.30396V13.0431C13.5649 15.8387 17.2171 16.6953 17.2171 16.6953C17.2171 16.6953 20.8693 15.8387 20.8693 13.0431V7.30396H13.5649Z" fill="#338AF3"/>
<path d="M13.8948 14.4024C14.7925 16.1259 17.2177 16.695 17.2177 16.695C17.2177 16.695 19.643 16.1259 20.5407 14.4024L17.2177 8.8689L13.8948 14.4024Z" fill="#6DA544"/>
<path d="M20.8693 12.9851L17.2171 7.30396L13.5649 12.9851V13.043C13.5649 13.5605 13.6903 14.0113 13.8941 14.4027L17.2171 9.23356L20.5401 14.4027C20.7439 14.0112 20.8693 13.5604 20.8693 13.043V12.9851Z" fill="#FFDA44"/>
</g>
<defs>
<clipPath id="clip0_612_11126">
<rect width="24" height="24" fill="white"/>
</clipPath>
</defs>
</svg>
