<svg width="24" height="24" viewBox="0 0 24 24" fill="none" xmlns="http://www.w3.org/2000/svg">
<g clip-path="url(#clip0_612_11106)">
<path d="M12 24C18.6274 24 24 18.6274 24 12C24 5.37258 18.6274 0 12 0C5.37258 0 0 5.37258 0 12C0 18.6274 5.37258 24 12 24Z" fill="#F0F0F0"/>
<path d="M12.0002 0C7.24267 0 3.13192 2.76867 1.19092 6.78262H22.8094C20.8685 2.76867 16.7577 0 12.0002 0Z" fill="#D80027"/>
<path d="M12.0002 24.0009C16.7577 24.0009 20.8685 21.2322 22.8095 17.2183H1.19092C3.13192 21.2322 7.24267 24.0009 12.0002 24.0009Z" fill="#0052B4"/>
<path d="M14.9512 8.52661L13.8444 9.63338C14.3165 10.1055 14.6085 10.7576 14.6085 11.478C14.6085 12.9188 13.4405 14.0867 11.9998 14.0867C10.5591 14.0867 9.39113 12.9187 9.39113 11.478C9.39113 10.7576 9.68316 10.1055 10.1552 9.63338L9.04848 8.52661C8.29308 9.28186 7.82593 10.3253 7.82593 11.478C7.82593 13.7832 9.69465 15.6519 11.9998 15.6519C14.305 15.6519 16.1737 13.7832 16.1737 11.478C16.1737 10.3253 15.7065 9.28186 14.9512 8.52661Z" fill="#6DA544"/>
<path d="M12 9.9126L12.3886 11.1084H13.6458L12.6287 11.8473L13.0172 13.043L12 12.3041L10.9828 13.043L11.3714 11.8473L10.3542 11.1084H11.6115L12 9.9126Z" fill="#FFDA44"/>
</g>
<defs>
<clipPath id="clip0_612_11106">
<rect width="24" height="24" fill="white"/>
</clipPath>
</defs>
</svg>
