<svg width="24" height="24" viewBox="0 0 24 24" fill="none" xmlns="http://www.w3.org/2000/svg">
<g clip-path="url(#clip0_612_11322)">
<path d="M20.4861 20.4851C24.9866 15.9846 25.1643 8.79939 21.0211 4.08569L12.0005 11.9994L4.08667 21.0201C8.80036 25.1633 15.9855 24.9856 20.4861 20.4851Z" fill="#496E2D"/>
<path d="M3.51487 3.5144C8.01537 -0.986107 15.2006 -1.16381 19.9143 2.97942L12.0004 12.0001L2.97993 19.9138C-1.16334 15.2001 -0.985595 8.01491 3.51487 3.5144Z" fill="#0052B4"/>
<path d="M19.9139 2.98022L2.97949 19.9146C3.15068 20.1094 3.32843 20.3005 3.51448 20.4864C3.70048 20.6724 3.89158 20.8502 4.0864 21.0214L21.0207 4.08703C20.8495 3.89222 20.6717 3.70116 20.4856 3.51511C20.2997 3.32921 20.1086 3.15141 19.9139 2.98022Z" fill="#FFDA44"/>
<path d="M5.05692 4.17432L5.316 4.97152H6.15417L5.47607 5.46413L5.73506 6.26133L5.05692 5.76863L4.37878 6.26133L4.63786 5.46413L3.95972 4.97152H4.79793L5.05692 4.17432Z" fill="#F0F0F0"/>
<path d="M9.33768 4.17358L9.59676 4.97079H10.4349L9.75679 5.46339L10.0158 6.2606L9.33768 5.76789L8.65954 6.2606L8.91862 5.46339L8.24048 4.97079H9.07865L9.33768 4.17358Z" fill="#F0F0F0"/>
<path d="M5.05643 8.34766L5.31551 9.14486H6.15368L5.47559 9.63751L5.73457 10.4347L5.05643 9.94201L4.37829 10.4347L4.63737 9.63751L3.95923 9.14486H4.79745L5.05643 8.34766Z" fill="#F0F0F0"/>
<path d="M9.33768 8.34766L9.59676 9.14486H10.4349L9.75679 9.63751L10.0158 10.4347L9.33768 9.94201L8.65954 10.4347L8.91862 9.63751L8.24048 9.14486H9.07865L9.33768 8.34766Z" fill="#F0F0F0"/>
<path d="M7.1971 6.26172L7.45618 7.05892H8.2943L7.61621 7.55157L7.87524 8.34877L7.1971 7.85607L6.51896 8.34877L6.77799 7.55157L6.09985 7.05892H6.93807L7.1971 6.26172Z" fill="#F0F0F0"/>
</g>
<defs>
<clipPath id="clip0_612_11322">
<rect width="24" height="24" fill="white"/>
</clipPath>
</defs>
</svg>
