<svg width="24" height="24" viewBox="0 0 24 24" fill="none" xmlns="http://www.w3.org/2000/svg">
<g clip-path="url(#clip0_612_11264)">
<path d="M12 24C18.6274 24 24 18.6274 24 12C24 5.37258 18.6274 0 12 0C5.37258 0 0 5.37258 0 12C0 18.6274 5.37258 24 12 24Z" fill="#F0F0F0"/>
<path d="M20.1001 3.14631C17.9654 1.192 15.1219 -0.000732422 11.9997 -0.000732422C11.4885 -0.000732422 10.9849 0.0314707 10.4905 0.0934863L4.69532 6.78189L0.379395 15.0054C0.658207 16.0864 1.08449 17.108 1.63447 18.0484L11.9997 11.9993L20.1001 3.14631Z" fill="#FFDA44"/>
<path d="M21.9905 18.6479L5.20142 21.8879C7.13403 23.2192 9.47581 23.9993 12 23.9993C16.1682 23.9993 19.8394 21.8738 21.9905 18.6479Z" fill="#6DA544"/>
<path d="M20.1023 3.14819L1.64185 18.0603C2.12471 18.8838 2.70281 19.6446 3.36127 20.3276L24.0002 11.9996C24.0002 8.49522 22.4978 5.34204 20.1023 3.14819Z" fill="#D80027"/>
<path d="M-0.000488281 12C-0.000488281 13.0382 0.131418 14.0455 0.379246 15.0062L10.4904 0.0942383C4.57536 0.836457 -0.000488281 5.88377 -0.000488281 12Z" fill="#0052B4"/>
</g>
<defs>
<clipPath id="clip0_612_11264">
<rect width="24" height="24" fill="white"/>
</clipPath>
</defs>
</svg>
