<svg width="24" height="24" viewBox="0 0 24 24" fill="none" xmlns="http://www.w3.org/2000/svg">
<g clip-path="url(#clip0_612_11432)">
<path d="M12 24C18.6274 24 24 18.6274 24 12C24 5.37258 18.6274 0 12 0C5.37258 0 0 5.37258 0 12C0 18.6274 5.37258 24 12 24Z" fill="#FFDA44"/>
<path d="M9.39092 10.435H23.898C23.131 4.54721 18.0964 0.000244141 11.9996 0.000244141C11.1036 0.000244141 10.2308 0.099291 9.39087 0.285479V10.435H9.39092Z" fill="#0052B4"/>
<path d="M6.26085 10.4349V1.45923C2.96581 3.25707 0.607016 6.55478 0.101562 10.4349H6.26085V10.4349Z" fill="#0052B4"/>
<path d="M6.2608 13.5657H0.101562C0.607016 17.4458 2.96581 20.7436 6.26085 22.5414L6.2608 13.5657Z" fill="#0052B4"/>
<path d="M9.39087 13.5657V23.7152C10.2308 23.9014 11.1036 24.0005 11.9996 24.0005C18.0964 24.0005 23.131 19.4535 23.898 13.5657H9.39087V13.5657Z" fill="#0052B4"/>
</g>
<defs>
<clipPath id="clip0_612_11432">
<rect width="24" height="24" fill="white"/>
</clipPath>
</defs>
</svg>
