<svg width="24" height="24" viewBox="0 0 24 24" fill="none" xmlns="http://www.w3.org/2000/svg">
<g clip-path="url(#clip0_612_11309)">
<path d="M12 24C18.6274 24 24 18.6274 24 12C24 5.37258 18.6274 0 12 0C5.37258 0 0 5.37258 0 12C0 18.6274 5.37258 24 12 24Z" fill="#F0F0F0"/>
<path d="M12 23.9996C18.6274 23.9996 24 18.6269 24 11.9996C24 10.5317 23.736 9.12562 23.2536 7.82568H0.746391C0.264047 9.12562 0 10.5317 0 11.9996C0 18.6269 5.37262 23.9996 12 23.9996Z" fill="#0052B4"/>
<path d="M12.0002 23.9997C17.1598 23.9997 21.5583 20.7432 23.2538 16.1736H0.746582C2.4421 20.7432 6.84061 23.9997 12.0002 23.9997Z" fill="#D80027"/>
<path d="M3.10278 6.78198V12.7682C3.10278 16.1734 7.55127 17.2168 7.55127 17.2168C7.55127 17.2168 11.9997 16.1734 11.9997 12.7682V6.78198H3.10278Z" fill="#F0F0F0"/>
<path d="M4.14648 6.78198V12.7682C4.14648 13.168 4.23527 13.5455 4.41114 13.8994C6.15648 13.8994 8.76517 13.8994 10.6918 13.8994C10.8677 13.5455 10.9564 13.168 10.9564 12.7682V6.78198H4.14648Z" fill="#D80027"/>
<path d="M9.63849 10.9561H8.07334V9.91261H9.11682V8.86912H8.07334V7.82568H7.02985V8.86912H5.98641V9.91261H7.02985V10.9561H5.4646V11.9996H7.02985V13.0431H8.07334V11.9996H9.63849V10.9561Z" fill="#F0F0F0"/>
<path d="M5.8344 15.3572C6.50682 15.7798 7.19766 16.0251 7.55134 16.1342C7.90501 16.0251 8.59585 15.7798 9.26827 15.3572C9.94637 14.931 10.4217 14.4436 10.6916 13.9005C10.3939 13.6899 10.0307 13.5657 9.63831 13.5657C9.49543 13.5657 9.35663 13.5826 9.22318 13.6137C8.94038 12.9711 8.29843 12.5222 7.55138 12.5222C6.80434 12.5222 6.16234 12.9711 5.87959 13.6137C5.74613 13.5826 5.60729 13.5657 5.46446 13.5657C5.07207 13.5657 4.70884 13.6899 4.41113 13.9005C4.6809 14.4435 5.15626 14.9309 5.8344 15.3572Z" fill="#0052B4"/>
</g>
<defs>
<clipPath id="clip0_612_11309">
<rect width="24" height="24" fill="white"/>
</clipPath>
</defs>
</svg>
