<svg width="24" height="24" viewBox="0 0 24 24" fill="none" xmlns="http://www.w3.org/2000/svg">
<g clip-path="url(#clip0_612_11270)">
<path d="M23.2534 16.1742C23.7358 14.8742 23.9998 13.4682 23.9998 12.0003C23.9998 10.5325 23.7358 9.12643 23.2534 7.82644L11.9998 6.78296L0.746147 7.82644C0.263756 9.12643 -0.000244141 10.5325 -0.000244141 12.0003C-0.000244141 13.4682 0.263756 14.8742 0.746147 16.1742L11.9998 17.2177L23.2534 16.1742Z" fill="#F0F0F0"/>
<path d="M11.9997 24.0007C17.1593 24.0007 21.5578 20.7442 23.2533 16.1746H0.746094C2.44166 20.7442 6.84012 24.0007 11.9997 24.0007Z" fill="#338AF3"/>
<path d="M12 0C6.84037 0 2.4419 3.2565 0.746338 7.82611H23.2536C21.5581 3.2565 17.1595 0 12 0Z" fill="#6DA544"/>
</g>
<defs>
<clipPath id="clip0_612_11270">
<rect width="24" height="24" fill="white"/>
</clipPath>
</defs>
</svg>
