<svg width="24" height="24" viewBox="0 0 24 24" fill="none" xmlns="http://www.w3.org/2000/svg">
<g clip-path="url(#clip0_612_11248)">
<path d="M17.2172 1.19072C15.6396 0.427875 13.8697 0 11.9999 0C10.13 0 8.36012 0.427875 6.7825 1.19072L5.73901 12L6.7825 22.8093C8.36012 23.5721 10.13 24 11.9999 24C13.8697 24 15.6396 23.5721 17.2172 22.8093L18.2607 12L17.2172 1.19072Z" fill="#FFDA44"/>
<path d="M12 7.82593L13.0359 11.0144H16.3888L13.6764 12.9851L14.7124 16.1737L12 14.2031L9.28753 16.1737L10.3237 12.9851L7.61133 11.0144H10.964L12 7.82593Z" fill="#496E2D"/>
<path d="M6.78287 1.19067C2.76896 3.13163 0.000244141 7.24205 0.000244141 11.9995C0.000244141 16.757 2.76896 20.8674 6.78287 22.8084V1.19067Z" fill="#496E2D"/>
<path d="M17.2178 1.19141V22.8091C21.2317 20.8682 24.0004 16.7578 24.0004 12.0003C24.0004 7.24278 21.2317 3.13236 17.2178 1.19141Z" fill="#D80027"/>
</g>
<defs>
<clipPath id="clip0_612_11248">
<rect width="24" height="24" fill="white"/>
</clipPath>
</defs>
</svg>
