<svg width="24" height="24" viewBox="0 0 24 24" fill="none" xmlns="http://www.w3.org/2000/svg">
<g clip-path="url(#clip0_612_11231)">
<path d="M12 24C18.6274 24 24 18.6274 24 12C24 5.37258 18.6274 0 12 0C5.37258 0 0 5.37258 0 12C0 18.6274 5.37258 24 12 24Z" fill="#FFDA44"/>
<path d="M7.3051 7.82611H23.2543C21.5589 3.2565 17.1603 0 12.0008 0C8.68698 0 5.68731 1.34339 3.51587 3.51511L7.3051 7.82611Z" fill="#6DA544"/>
<path d="M7.30413 16.1746H23.2533C21.5579 20.7442 17.1593 24.0007 11.9998 24.0007C8.686 24.0007 5.68633 22.6573 3.51489 20.4856L7.30413 16.1746Z" fill="#6DA544"/>
<path d="M3.51471 3.51367C-1.17157 8.19995 -1.17157 15.798 3.51471 20.4843C5.45126 18.5478 7.31375 16.6853 12 11.999L3.51471 3.51367Z" fill="#D80027"/>
<path d="M15.2378 9.91284L15.7558 11.5072H17.4322L16.076 12.4925L16.594 14.0868L15.2378 13.1014L13.8816 14.0868L14.3996 12.4925L13.0435 11.5072H14.7198L15.2378 9.91284Z" fill="black"/>
<path d="M20.4556 9.91284L20.9736 11.5072H22.65L21.2938 12.4925L21.8118 14.0868L20.4556 13.1014L19.0994 14.0868L19.6174 12.4925L18.2612 11.5072H19.9376L20.4556 9.91284Z" fill="black"/>
</g>
<defs>
<clipPath id="clip0_612_11231">
<rect width="24" height="24" fill="white"/>
</clipPath>
</defs>
</svg>
