<svg width="24" height="24" viewBox="0 0 24 24" fill="none" xmlns="http://www.w3.org/2000/svg">
<g clip-path="url(#clip0_612_11299)">
<path d="M10.9565 13.0428C10.9565 13.0428 3.52168 3.51232 3.51465 3.514C5.68618 1.34242 8.68623 -0.000732422 12 -0.000732422C18.6273 -0.000732422 24 5.37189 24 11.9993L10.9565 13.0428Z" fill="#D80027"/>
<path d="M10.9565 11.9995C10.9565 11.9995 3.52168 20.4865 3.51465 20.4848C5.68618 22.6563 8.68623 23.9995 12 23.9995C18.6273 23.9995 24 18.6269 24 11.9995H10.9565Z" fill="#0052B4"/>
<path d="M3.51471 3.51465C-1.17157 8.20093 -1.17157 15.7989 3.51471 20.4853C5.45126 18.5487 7.31375 16.6862 12 12L3.51471 3.51465Z" fill="#F0F0F0"/>
<path d="M1.3157 11.9998C1.30914 12.0859 1.30469 12.1727 1.30469 12.2606C1.30469 14.1335 2.82306 15.6519 4.696 15.6519C6.56894 15.6519 8.08731 14.1335 8.08731 12.2606C8.08731 12.1727 8.08286 12.0859 8.0763 11.9998H1.3157Z" fill="#FFDA44"/>
<path d="M4.69558 10.4339C5.27188 10.4339 5.73907 9.96671 5.73907 9.39041C5.73907 8.81411 5.27188 8.34692 4.69558 8.34692C4.11928 8.34692 3.6521 8.81411 3.6521 9.39041C3.6521 9.96671 4.11928 10.4339 4.69558 10.4339Z" fill="#FFDA44"/>
<path d="M2.34741 9.13013V12.5214C2.34741 14.3186 4.69524 14.8693 4.69524 14.8693C4.69524 14.8693 7.04307 14.3186 7.04307 12.5214V9.13013H2.34741Z" fill="#D80027"/>
<path d="M4.69687 13.7777C4.26131 13.6209 3.39136 13.2203 3.39136 12.5219V10.1741H6.00009V12.5219C6.00009 13.2226 5.13023 13.6222 4.69687 13.7777Z" fill="#338AF3"/>
<path d="M5.21768 11.4777V10.9559L4.69596 10.6951L4.17419 10.9559V11.4777L3.91333 11.7386V12.782H5.47858V11.7386L5.21768 11.4777Z" fill="#F3F3F3"/>
</g>
<defs>
<clipPath id="clip0_612_11299">
<rect width="24" height="24" fill="white"/>
</clipPath>
</defs>
</svg>
