<svg width="24" height="24" viewBox="0 0 24 24" fill="none" xmlns="http://www.w3.org/2000/svg">
<g clip-path="url(#clip0_612_11479)">
<path d="M12 24C18.6274 24 24 18.6274 24 12C24 5.37258 18.6274 0 12 0C5.37258 0 0 5.37258 0 12C0 18.6274 5.37258 24 12 24Z" fill="#FFDA44"/>
<path d="M12 0.000488281C11.9913 0.000582031 11.4783 4.80049 11.4783 4.80049H21.6005C19.4113 1.88594 15.9259 0.000488281 12 0.000488281Z" fill="#496E2D"/>
<path d="M12.0002 24.0005C15.926 24.0005 19.4114 22.115 21.6007 19.2004H2.39966C4.58891 22.115 8.0743 24.0005 12.0002 24.0005Z" fill="#496E2D"/>
<path d="M23.7597 9.60034H11.4783L12 14.4003H23.7597C23.9172 13.6249 24 12.8223 24 12.0003C24 11.1784 23.9171 10.3758 23.7597 9.60034Z" fill="#496E2D"/>
<path d="M12 14.4C12 11.8957 12 2.81737 12 0C5.37262 0 0 5.37262 0 12C0 12.822 0.082875 13.6245 0.240281 14.4H12Z" fill="#D80027"/>
<path d="M6.62106 5.73828L7.39806 8.12961H9.91267L7.87843 9.60772L8.65534 11.9991L6.62106 10.5212L4.58678 11.9991L5.36382 9.60772L3.32959 8.12961H5.84411L6.62106 5.73828Z" fill="#F0F0F0"/>
</g>
<defs>
<clipPath id="clip0_612_11479">
<rect width="24" height="24" fill="white"/>
</clipPath>
</defs>
</svg>
