<svg width="24" height="24" viewBox="0 0 24 24" fill="none" xmlns="http://www.w3.org/2000/svg">
<g clip-path="url(#clip0_612_11473)">
<path d="M12 24C18.6274 24 24 18.6274 24 12C24 5.37258 18.6274 0 12 0C5.37258 0 0 5.37258 0 12C0 18.6274 5.37258 24 12 24Z" fill="#F0F0F0"/>
<path d="M23.2539 7.82593H0.746635C0.264244 9.12591 0.000244141 10.532 0.000244141 11.9998C0.000244141 13.4677 0.264244 14.8737 0.746635 16.1737H23.2539C23.7362 14.8737 24.0002 13.4677 24.0002 11.9998C24.0002 10.532 23.7362 9.12591 23.2539 7.82593Z" fill="#0052B4"/>
<path d="M12.0014 -0.000488281C8.36432 -0.000488281 5.10543 1.61782 2.90479 4.1734H21.098C18.8974 1.61782 15.6385 -0.000488281 12.0014 -0.000488281Z" fill="#D80027"/>
<path d="M21.097 19.8262H2.90381C5.10445 22.3817 8.36334 24 12.0004 24C15.6375 24 18.8964 22.3817 21.097 19.8262Z" fill="#D80027"/>
</g>
<defs>
<clipPath id="clip0_612_11473">
<rect width="24" height="24" fill="white"/>
</clipPath>
</defs>
</svg>
