<svg width="24" height="24" viewBox="0 0 24 24" fill="none" xmlns="http://www.w3.org/2000/svg">
<g clip-path="url(#clip0_612_11449)">
<path d="M24 12C24 18.6274 18.6274 24 12 24C5.37262 24 0 18.6274 0 12C4.12172 7.87828 7.61737 4.38263 12 0C18.6274 0 24 5.37262 24 12Z" fill="#D80027"/>
<path d="M12 12C12 5.37262 12 4.59131 12 0C5.37262 0 0 5.37262 0 12H12Z" fill="#0052B4"/>
<path d="M10.435 7.02293L8.96945 7.71237L9.74983 9.13169L8.15847 8.82719L7.95677 10.4349L6.84836 9.25249L5.73986 10.4349L5.53825 8.82719L3.94684 9.1316L4.72722 7.71227L3.26172 7.02293L4.72727 6.33363L3.94684 4.91426L5.5382 5.21871L5.73991 3.61108L6.84836 4.79346L7.95681 3.61108L8.15847 5.21871L9.74987 4.91426L8.96945 6.33368L10.435 7.02293Z" fill="#F0F0F0"/>
<path d="M6.84848 9.25678C8.08213 9.25678 9.08221 8.2567 9.08221 7.02304C9.08221 5.78938 8.08213 4.78931 6.84848 4.78931C5.61482 4.78931 4.61475 5.78938 4.61475 7.02304C4.61475 8.2567 5.61482 9.25678 6.84848 9.25678Z" fill="#0052B4"/>
<path d="M6.84792 8.21399C6.19162 8.21399 5.65771 7.68004 5.65771 7.02374C5.65771 6.36745 6.19167 5.8335 6.84792 5.8335C7.50422 5.8335 8.03817 6.36745 8.03817 7.02374C8.03812 7.68004 7.50412 8.21399 6.84792 8.21399Z" fill="#F0F0F0"/>
</g>
<defs>
<clipPath id="clip0_612_11449">
<rect width="24" height="24" fill="white"/>
</clipPath>
</defs>
</svg>
