<svg width="24" height="24" viewBox="0 0 24 24" fill="none" xmlns="http://www.w3.org/2000/svg">
<g clip-path="url(#clip0_612_11468)">
<path d="M12 24C18.6274 24 24 18.6274 24 12C24 5.37258 18.6274 0 12 0C5.37258 0 0 5.37258 0 12C0 18.6274 5.37258 24 12 24Z" fill="#FFDA44"/>
<path d="M3.51471 20.4856C4.0181 20.989 4.55519 21.4379 5.11858 21.8331L21.8328 5.11887C21.4376 4.55548 20.9887 4.01839 20.4853 3.515C19.9818 3.01161 19.4448 2.56273 18.8814 2.16748L2.16724 18.8817C2.56239 19.445 3.01136 19.9821 3.51471 20.4856Z" fill="black"/>
<path d="M3.51447 3.51392C-0.271251 7.29974 -0.998048 12.9853 1.33272 17.5013L17.5019 1.33222C12.9858 -0.998546 7.30023 -0.271703 3.51447 3.51392Z" fill="#6DA544"/>
<path d="M20.4849 20.4852C24.2706 16.6995 24.9974 11.0139 22.6667 6.4978L6.49756 22.667C11.0135 24.9977 16.6992 24.2709 20.4849 20.4852Z" fill="#338AF3"/>
</g>
<defs>
<clipPath id="clip0_612_11468">
<rect width="24" height="24" fill="white"/>
</clipPath>
</defs>
</svg>
