<svg width="24" height="24" viewBox="0 0 24 24" fill="none" xmlns="http://www.w3.org/2000/svg">
<g clip-path="url(#clip0_612_11632)">
<path d="M0.566869 8.34794C0.199275 9.49956 0.000197274 10.7264 0.000244149 12C0.000197274 13.2736 0.199322 14.5005 0.566916 15.6521L12.0002 16.174L23.4336 15.6522C23.8011 14.5006 24.0003 13.2736 24.0003 12.0001C24.0003 10.7265 23.8012 9.49956 23.4336 8.34789L12.0002 7.82617L0.566869 8.34794Z" fill="#F0F0F0"/>
<path d="M23.4332 8.34789L11.9999 7.82617L0.5665 8.34789C0.457563 8.68933 0.363766 9.03747 0.285156 9.39137H23.7144C23.6359 9.03742 23.5421 8.68923 23.4332 8.34789Z" fill="#D80027"/>
<path d="M0.285156 14.6089C0.363672 14.9628 0.457469 15.3109 0.566406 15.6523L0.567531 15.6524L11.9997 16.1741L23.433 15.6524C23.542 15.3109 23.6358 14.9628 23.7143 14.6089H0.285156Z" fill="#D80027"/>
<path d="M12.0004 24.0007C17.3543 24.0007 21.8885 20.4943 23.4338 15.6528H0.567139C2.11237 20.4942 6.64669 24.0007 12.0004 24.0007Z" fill="#6DA544"/>
<path d="M12 -0.000976562C6.6462 -0.000929687 2.11198 3.50546 0.56665 8.34685L23.4333 8.3469C21.8881 3.50541 17.3539 -0.00102344 12 -0.000976562Z" fill="#338AF3"/>
<path d="M5.48351 4.95618C5.48351 3.83226 6.2734 2.89335 7.32823 2.66301C7.16614 2.62757 6.9979 2.6084 6.82512 2.6084C5.52847 2.6084 4.47729 3.65952 4.47729 4.95623C4.47729 6.25293 5.52837 7.30406 6.82512 7.30406C6.9979 7.30406 7.16609 7.28484 7.32823 7.24945C6.27345 7.01901 5.48351 6.0801 5.48351 4.95618Z" fill="#F0F0F0"/>
<path d="M8.71531 6.02246L8.87421 6.5116H9.38853L8.97246 6.81395L9.13137 7.30309L8.71531 7.00079L8.29915 7.30309L8.4581 6.81395L8.04199 6.5116H8.55631L8.71531 6.02246Z" fill="#F0F0F0"/>
<path d="M10.3575 6.02246L10.5165 6.5116H11.0308L10.6147 6.81395L10.7737 7.30309L10.3575 7.00079L9.94144 7.30309L10.1004 6.81395L9.68433 6.5116H10.1986L10.3575 6.02246Z" fill="#F0F0F0"/>
<path d="M11.9988 6.02246L12.1577 6.5116H12.672L12.2559 6.81395L12.4148 7.30309L11.9988 7.00079L11.5826 7.30309L11.7416 6.81395L11.3254 6.5116H11.8398L11.9988 6.02246Z" fill="#F0F0F0"/>
<path d="M13.6408 6.02246L13.7998 6.5116H14.3141L13.898 6.81395L14.0569 7.30309L13.6408 7.00079L13.2247 7.30309L13.3837 6.81395L12.9675 6.5116H13.4818L13.6408 6.02246Z" fill="#F0F0F0"/>
<path d="M15.2823 6.02246L15.4413 6.5116H15.9556L15.5396 6.81395L15.6985 7.30309L15.2823 7.00079L14.8662 7.30309L15.0252 6.81395L14.6091 6.5116H15.1234L15.2823 6.02246Z" fill="#F0F0F0"/>
<path d="M10.3575 4.31494L10.5165 4.80404H11.0308L10.6147 5.10643L10.7737 5.59552L10.3575 5.29322L9.94144 5.59552L10.1004 5.10643L9.68433 4.80404H10.1986L10.3575 4.31494Z" fill="#F0F0F0"/>
<path d="M11.9988 4.31494L12.1577 4.80404H12.672L12.2559 5.10643L12.4148 5.59552L11.9988 5.29322L11.5826 5.59552L11.7416 5.10643L11.3254 4.80404H11.8398L11.9988 4.31494Z" fill="#F0F0F0"/>
<path d="M13.6408 4.31494L13.7998 4.80404H14.3141L13.898 5.10643L14.0569 5.59552L13.6408 5.29322L13.2247 5.59552L13.3837 5.10643L12.9675 4.80404H13.4818L13.6408 4.31494Z" fill="#F0F0F0"/>
<path d="M15.2823 4.31494L15.4413 4.80404H15.9556L15.5396 5.10643L15.6985 5.59552L15.2823 5.29322L14.8662 5.59552L15.0252 5.10643L14.6091 4.80404H15.1234L15.2823 4.31494Z" fill="#F0F0F0"/>
<path d="M11.9988 2.60791L12.1577 3.0971H12.672L12.2559 3.39939L12.4148 3.88858L11.9988 3.58629L11.5826 3.88858L11.7416 3.39939L11.3254 3.0971H11.8398L11.9988 2.60791Z" fill="#F0F0F0"/>
<path d="M13.6408 2.60791L13.7998 3.0971H14.3141L13.898 3.39939L14.0569 3.88858L13.6408 3.58629L13.2247 3.88858L13.3837 3.39939L12.9675 3.0971H13.4818L13.6408 2.60791Z" fill="#F0F0F0"/>
<path d="M15.2823 2.60791L15.4413 3.0971H15.9556L15.5396 3.39939L15.6985 3.88858L15.2823 3.58629L14.8662 3.88858L15.0252 3.39939L14.6091 3.0971H15.1234L15.2823 2.60791Z" fill="#F0F0F0"/>
</g>
<defs>
<clipPath id="clip0_612_11632">
<rect width="24" height="24" fill="white"/>
</clipPath>
</defs>
</svg>
