<svg width="24" height="24" viewBox="0 0 24 24" fill="none" xmlns="http://www.w3.org/2000/svg">
<g clip-path="url(#clip0_612_11397)">
<path d="M17.739 1.45957C16.0342 0.529379 14.0788 0.000488281 11.9999 0.000488281C9.921 0.000488281 7.96566 0.529379 6.26077 1.45957L5.21729 12.0005L6.26077 22.5414C7.96566 23.4716 9.921 24.0005 11.9999 24.0005C14.0788 24.0005 16.0342 23.4716 17.739 22.5414L18.7825 12.0005L17.739 1.45957Z" fill="#FFDA44"/>
<path d="M6.2611 22.5408V1.45898C2.53098 3.4943 0.000244141 7.45144 0.000244141 12C0.000244141 16.5485 2.53098 20.5056 6.2611 22.5408Z" fill="#338AF3"/>
<path d="M24.0004 12C24.0004 7.45144 21.4696 3.4943 17.7395 1.45898V22.5408C21.4696 20.5056 24.0004 16.5485 24.0004 12Z" fill="#6DA544"/>
<path d="M9.39195 15.1296L7.30493 11.9991L9.3919 8.86865L11.479 11.9991L9.39195 15.1296Z" fill="#6DA544"/>
<path d="M14.6097 15.1296L12.5227 11.9991L14.6097 8.86865L16.6966 11.9991L14.6097 15.1296Z" fill="#6DA544"/>
<path d="M12.0008 19.3034L9.91382 16.1729L12.0008 13.0425L14.0878 16.1729L12.0008 19.3034Z" fill="#6DA544"/>
</g>
<defs>
<clipPath id="clip0_612_11397">
<rect width="24" height="24" fill="white"/>
</clipPath>
</defs>
</svg>
