<svg width="24" height="24" viewBox="0 0 24 24" fill="none" xmlns="http://www.w3.org/2000/svg">
<g clip-path="url(#clip0_612_9994)">
<path d="M22.8088 17.2165C23.5717 15.6389 23.9995 13.869 23.9995 11.9991C23.9995 10.1293 23.5717 8.35939 22.8088 6.78177L11.9995 5.73828L1.19023 6.78177C0.42734 8.35939 -0.000488281 10.1293 -0.000488281 11.9991C-0.000488281 13.869 0.42734 15.6389 1.19023 17.2165L11.9995 18.26L22.8088 17.2165Z" fill="#0052B4"/>
<path d="M11.9997 24.0004C16.7572 24.0004 20.868 21.2317 22.809 17.2178H1.19043C3.13143 21.2317 7.24218 24.0004 11.9997 24.0004Z" fill="#D80027"/>
<path d="M20.7819 14.3562L20.1481 14.8515L20.4232 15.6072L19.7563 15.1575L19.1224 15.6527L19.344 14.8795L18.6772 14.4297L19.4811 14.4016L19.7029 13.6284L19.9781 14.3842L20.7819 14.3562Z" fill="#F0F0F0"/>
<path d="M19.159 11.5444L18.7329 12.2266L19.25 12.8426L18.4694 12.6483L18.0432 13.3303L17.987 12.5279L17.2065 12.3333L17.9524 12.0319L17.8964 11.2295L18.4133 11.8458L19.159 11.5444Z" fill="#F0F0F0"/>
<path d="M16.6724 9.4585L16.5052 10.2453L17.2018 10.6475L16.4019 10.7318L16.2346 11.5184L15.9074 10.7837L15.1074 10.8676L15.7053 10.3294L15.3781 9.59467L16.0747 9.99676L16.6724 9.4585Z" fill="#F0F0F0"/>
<path d="M13.6221 8.34814L13.7342 9.14469L14.5262 9.28429L13.8033 9.63707L13.9153 10.4336L13.3566 9.85494L12.6335 10.2075L13.0112 9.49724L12.4524 8.91871L13.2446 9.05835L13.6221 8.34814Z" fill="#F0F0F0"/>
<path d="M10.3765 8.34814L10.7542 9.05835L11.5462 8.91861L10.9876 9.49738L11.365 10.2076L10.6421 9.85494L10.0833 10.4334L10.1954 9.63706L9.47241 9.28447L10.2646 9.14469L10.3765 8.34814Z" fill="#F0F0F0"/>
<path d="M7.32614 9.4585L7.92399 9.99676L8.62041 9.59467L8.29336 10.3297L8.89106 10.8678L8.09114 10.7837L7.76386 11.5184L7.59684 10.7317L6.79688 10.6477L7.49344 10.2454L7.32614 9.4585Z" fill="#F0F0F0"/>
<path d="M4.83973 11.5448L5.58565 11.8461L6.10249 11.23L6.04657 12.0325L6.79225 12.3339L6.01183 12.5284L5.95563 13.3306L5.52954 12.6487L4.74902 12.8431L5.26605 12.227L4.83973 11.5448Z" fill="#F0F0F0"/>
<path d="M3.2168 14.3561L4.0208 14.3841L4.29577 13.6284L4.51772 14.4017L5.32148 14.4297L4.65464 14.8796L4.87627 15.6527L4.24252 15.1575L3.57562 15.6072L3.85073 14.8514L3.2168 14.3561Z" fill="#F0F0F0"/>
<path d="M22.809 6.78214C20.868 2.76818 16.7572 -0.000488281 11.9997 -0.000488281C7.24218 -0.000488281 3.13143 2.76818 1.19043 6.78214H22.809Z" fill="#FFDA44"/>
</g>
<defs>
<clipPath id="clip0_612_9994">
<rect width="24" height="24" fill="white"/>
</clipPath>
</defs>
</svg>
