<svg width="24" height="24" viewBox="0 0 24 24" fill="none" xmlns="http://www.w3.org/2000/svg">
<g clip-path="url(#clip0_612_10117)">
<path d="M24 12C24 18.6274 18.6274 24 12 24C5.37262 24 0 18.6274 0 12C0 12.0029 12 0.0013125 12 0C18.6274 0 24 5.37262 24 12Z" fill="#0052B4"/>
<path d="M11.968 12.0007H12.0002C12.0002 11.9899 12.0002 11.9794 12.0002 11.9685C11.9895 11.9793 11.9788 11.99 11.968 12.0007Z" fill="#F0F0F0"/>
<path d="M11.9997 6.26184C11.9997 4.15035 11.9997 2.76684 11.9997 0.000976562H11.9977C5.37121 0.00210156 -0.000244141 5.37421 -0.000244141 12.001H6.26061V8.47546L9.78613 12.001H11.9677C11.9784 11.9903 11.9891 11.9796 11.9998 11.9689C11.9998 11.1604 11.9998 10.4391 11.9998 9.78745L8.47419 6.26184H11.9997Z" fill="#F0F0F0"/>
<path d="M6.07051 1.56421C4.19368 2.63291 2.63335 4.19319 1.5647 6.07002V11.999H4.69515V4.69476V4.69466H11.9995C11.9995 3.70733 11.9995 2.76674 11.9995 1.56421H6.07051Z" fill="#D80027"/>
<path d="M17.218 11.9998L13.9746 15.2432C14.5825 16.4156 15.8063 17.2171 17.218 17.2171C18.6298 17.2171 19.8536 16.4156 20.4615 15.2432L17.218 11.9998Z" fill="#FFDA44"/>
<path d="M11.9996 10.5244L7.73612 6.26099H6.2605V6.26108L11.9995 12.0001H11.9996C11.9996 12.0001 11.9996 10.9826 11.9996 10.5244Z" fill="#D80027"/>
<path d="M13.5652 6.26099V12.0001V12.0001C13.5652 14.7957 17.2174 15.6523 17.2174 15.6523C17.2174 15.6523 20.8695 14.7957 20.8695 12.0001V12.0001V6.26099H13.5652Z" fill="#6DA544"/>
<path d="M18 8.86987H16.4348V13.0438H18V8.86987Z" fill="#F0F0F0"/>
<path d="M17.2172 9.65168C17.6494 9.65168 17.9998 9.30129 17.9998 8.86905C17.9998 8.43682 17.6494 8.08643 17.2172 8.08643C16.785 8.08643 16.4346 8.43682 16.4346 8.86905C16.4346 9.30129 16.785 9.65168 17.2172 9.65168Z" fill="#A2001D"/>
<path d="M15.6531 7.30469H14.6096V8.34817H15.6531V7.30469Z" fill="#FFDA44"/>
<path d="M15.6524 9.65186H14.6089V10.6953H15.6524V9.65186Z" fill="#FFDA44"/>
<path d="M15.6524 12.0005H14.6089V13.044H15.6524V12.0005Z" fill="#FFDA44"/>
<path d="M19.8264 7.30542H18.783V8.3489H19.8264V7.30542Z" fill="#FFDA44"/>
<path d="M19.8264 9.65186H18.783V10.6953H19.8264V9.65186Z" fill="#FFDA44"/>
<path d="M19.8264 12.0005H18.783V13.044H19.8264V12.0005Z" fill="#FFDA44"/>
</g>
<defs>
<clipPath id="clip0_612_10117">
<rect width="24" height="24" fill="white"/>
</clipPath>
</defs>
</svg>
