<svg width="24" height="24" viewBox="0 0 24 24" fill="none" xmlns="http://www.w3.org/2000/svg">
<g clip-path="url(#clip0_612_11214)">
<path d="M24 12C24 18.6274 18.6274 24 12 24C5.37262 24 0 18.6274 0 12C4.12172 7.87828 7.61737 4.38263 12 0C18.6274 0 24 5.37262 24 12Z" fill="#D80027"/>
<path d="M12 12C12 5.37262 12 4.59131 12 0C5.37262 0 0 5.37262 0 12H12Z" fill="#0052B4"/>
<path d="M9.61146 7.82617L9.80576 8.42406H10.4344L9.92576 8.79348L10.1201 9.39137L9.61146 9.02186L9.10287 9.39137L9.29717 8.79348L8.78857 8.42406H9.41717L9.61146 7.82617Z" fill="#F0F0F0"/>
<path d="M6.45448 3.1311L6.77824 4.12762H7.826L6.97831 4.74332L7.30217 5.73979L6.45448 5.1239L5.60684 5.73979L5.93065 4.74332L5.08301 4.12762H6.13067L6.45448 3.1311Z" fill="#F0F0F0"/>
<path d="M9.58534 4.17505L9.9091 5.17161H10.9568L10.1092 5.78732L10.4329 6.78379L9.58534 6.16789L8.7377 6.78379L9.06151 5.78732L8.21387 5.17161H9.26153L9.58534 4.17505Z" fill="#F0F0F0"/>
<path d="M7.11048 8.34888L7.43429 9.34539H8.48195L7.63431 9.9611L7.95812 10.9576L7.11048 10.3417L6.26284 10.9576L6.58665 9.9611L5.73901 9.34539H6.78672L7.11048 8.34888Z" fill="#F0F0F0"/>
<path d="M4.36752 5.73975L4.69133 6.73626H5.73903L4.89135 7.35196L5.21516 8.34843L4.36752 7.73259L3.51992 8.34843L3.84369 7.35196L2.99609 6.73626H4.04375L4.36752 5.73975Z" fill="#F0F0F0"/>
</g>
<defs>
<clipPath id="clip0_612_11214">
<rect width="24" height="24" fill="white"/>
</clipPath>
</defs>
</svg>
