<svg width="24" height="24" viewBox="0 0 24 24" fill="none" xmlns="http://www.w3.org/2000/svg">
<g clip-path="url(#clip0_612_10031)">
<path d="M12 24C18.6274 24 24 18.6274 24 12C24 5.37258 18.6274 0 12 0C5.37258 0 0 5.37258 0 12C0 18.6274 5.37258 24 12 24Z" fill="#F0F0F0"/>
<path d="M11.9999 23.999C17.1595 23.999 21.558 20.7425 23.2536 16.1729H0.746338C2.44185 20.7425 6.84037 23.999 11.9999 23.999Z" fill="black"/>
<path d="M11.9999 0.000488281C6.84037 0.000488281 2.44185 3.25699 0.746338 7.8266H23.2536C21.558 3.25699 17.1595 0.000488281 11.9999 0.000488281Z" fill="#D80027"/>
</g>
<defs>
<clipPath id="clip0_612_10031">
<rect width="24" height="24" fill="white"/>
</clipPath>
</defs>
</svg>
