<svg width="24" height="24" viewBox="0 0 24 24" fill="none" xmlns="http://www.w3.org/2000/svg">
<g clip-path="url(#clip0_612_10041)">
<path d="M12 24C18.6274 24 24 18.6274 24 12C24 5.37258 18.6274 0 12 0C5.37258 0 0 5.37258 0 12C0 18.6274 5.37258 24 12 24Z" fill="#F0F0F0"/>
<path d="M22.852 6.8727C22.2423 5.58486 21.4102 4.42315 20.4052 3.43667L12.0005 2.60938L3.59586 3.43672C3.56904 3.46301 3.54289 3.48992 3.51636 3.5165L6.87261 6.87275L12.0005 7.02936L22.852 6.8727Z" fill="#FFDA44"/>
<path d="M3.51587 20.4854C3.56003 20.5296 3.60409 20.5738 3.6489 20.6173L12.0002 21.3924L20.3514 20.6173C21.3668 19.6329 22.209 18.4711 22.8272 17.1813L7.30449 16.6968C5.96888 18.0324 4.42838 19.5728 3.51587 20.4854Z" fill="#FFDA44"/>
<path d="M23.8805 10.3081L9.91284 9.91309L11.9998 12.0001C11.3817 12.6182 10.4589 13.541 9.91284 14.087L23.8732 13.7442C23.9561 13.1747 23.9998 12.5925 23.9998 12.0001C23.9998 11.4256 23.9586 10.861 23.8805 10.3081Z" fill="black"/>
<path d="M12.0001 0.000488281C8.72696 0.000488281 5.76043 1.31158 3.59546 3.43652H20.4048C18.2399 1.31158 15.2733 0.000488281 12.0001 0.000488281Z" fill="#6DA544"/>
<path d="M10.3076 10.3086H23.8802C23.709 9.09551 23.3567 7.94079 22.851 6.87256H6.87158L10.3076 10.3086Z" fill="#D80027"/>
<path d="M6.81934 17.1816H22.8266C23.3382 16.1142 23.6961 14.9593 23.8729 13.7456H10.2554C8.92473 15.0762 7.79701 16.204 6.81934 17.1816Z" fill="#D80027"/>
<path d="M11.9999 24.0006C15.2462 24.0006 18.1909 22.7109 20.3511 20.6167H3.64868C5.80887 22.7109 8.75356 24.0006 11.9999 24.0006Z" fill="#6DA544"/>
<path d="M4.28528 2.81006C4.01852 3.03421 3.76113 3.2692 3.51489 3.51534L12.0002 12.0007L3.51489 20.486C3.76108 20.7322 4.01852 20.9671 4.28528 21.1912L13.4759 12.0007L4.28528 2.81006Z" fill="black"/>
<path d="M4.82467 8.86914L5.60163 11.2605H8.11624L6.08195 12.7386L6.85895 15.13L4.82467 13.652L2.79034 15.13L3.56744 12.7386L1.5332 11.2605H4.04767L4.82467 8.86914Z" fill="#D80027"/>
<path d="M6.96209 12.1945L4.93718 11.4771C4.93718 11.4771 4.78756 10.0735 4.77851 10.0259C4.70979 9.66393 4.39165 9.39014 4.00962 9.39014C3.57743 9.39014 3.22699 9.74053 3.22699 10.1728C3.22699 10.2444 3.23745 10.3135 3.25549 10.3795L2.68774 10.951C2.68774 10.951 3.36209 10.951 3.69724 10.951C3.69724 11.9988 2.91537 11.9988 2.91537 13.0423L3.3491 14.0858H5.95779L6.3926 13.0423H6.39242C6.43596 12.9422 6.4624 12.8389 6.47332 12.7357C6.84813 12.5841 6.96209 12.1945 6.96209 12.1945Z" fill="#FFDA44"/>
</g>
<defs>
<clipPath id="clip0_612_10041">
<rect width="24" height="24" fill="white"/>
</clipPath>
</defs>
</svg>
